<svg width="401" height="287" viewBox="0 0 401 287" fill="none" xmlns="http://www.w3.org/2000/svg">
<path d="M0.732674 286.429V260.55H12.4988C15.0613 260.55 17.1306 261.356 18.7066 262.969C20.2586 264.593 21.0346 266.632 21.0346 269.086C21.0346 271.613 20.2586 273.688 18.7066 275.312C17.1306 276.96 15.0613 277.784 12.4988 277.784H6.54354V286.429H0.732674ZM6.54354 272.605H11.3438C13.8582 272.605 15.1155 271.432 15.1155 269.086C15.1155 267.979 14.7846 267.131 14.1229 266.542C13.4492 265.976 12.5228 265.694 11.3438 265.694H6.54354V272.605Z" fill="#0B2540"/>
<path d="M47.33 276.593L53.574 286.068V286.429H46.7706L41.1943 277.297H37.567V286.429H31.7562V260.55H43.5945C46.2292 260.55 48.3707 261.356 50.0189 262.969C51.619 264.569 52.419 266.512 52.419 268.797C52.419 270.614 51.9739 272.214 51.0836 273.598C50.1693 274.969 48.9181 275.968 47.33 276.593ZM37.567 265.73V272.118H43.2877C44.3584 272.118 45.1585 271.799 45.6878 271.162C46.2051 270.536 46.4638 269.76 46.4638 268.834C46.4638 267.979 46.2051 267.239 45.6878 266.614C45.1344 266.024 44.3343 265.73 43.2877 265.73H37.567Z" fill="#0B2540"/>
<path d="M74.636 286.753C70.6418 286.753 67.5499 285.514 65.3603 283.036C63.1587 280.546 62.0578 277.363 62.0578 273.489C62.0578 269.604 63.1587 266.415 65.3603 263.925C67.5378 261.459 70.6298 260.226 74.636 260.226C78.6663 260.226 81.7703 261.459 83.9478 263.925C86.1134 266.379 87.1961 269.567 87.1961 273.489C87.1961 277.399 86.1134 280.582 83.9478 283.036C81.7582 285.514 78.6543 286.753 74.636 286.753ZM74.636 281.52C76.7895 281.52 78.4377 280.828 79.5807 279.445C80.7115 278.085 81.277 276.1 81.277 273.489C81.277 270.855 80.7115 268.858 79.5807 267.498C78.4618 266.151 76.8136 265.477 74.636 265.477C72.4464 265.477 70.7922 266.151 69.6733 267.498C68.5424 268.858 67.977 270.855 67.977 273.489C67.977 276.064 68.5545 278.049 69.7094 279.445C70.8523 280.828 72.4945 281.52 74.636 281.52Z" fill="#0B2540"/>
<path d="M106.977 286.753C103.584 286.753 100.974 285.929 99.1449 284.281C97.2801 282.669 96.2575 280.425 96.077 277.55H101.96C102.068 278.885 102.574 279.896 103.476 280.582C104.354 281.279 105.521 281.628 106.977 281.628C110.201 281.628 111.813 280.738 111.813 278.957C111.813 278.236 111.579 277.658 111.109 277.225C110.628 276.816 109.816 276.485 108.673 276.232L104.902 275.42C102.339 274.855 100.384 273.989 99.0366 272.822C97.629 271.679 96.9252 269.958 96.9252 267.661C96.9252 265.471 97.8515 263.684 99.7043 262.301C101.557 260.917 103.993 260.226 107.013 260.226C109.997 260.226 112.463 261.014 114.412 262.59C116.325 264.178 117.299 266.199 117.335 268.653H111.452C111.38 267.739 110.971 266.963 110.225 266.325C109.467 265.712 108.372 265.405 106.941 265.405C105.521 265.405 104.499 265.627 103.873 266.073C103.211 266.518 102.88 267.047 102.88 267.661C102.88 268.19 103.091 268.665 103.512 269.086C103.897 269.471 104.661 269.796 105.804 270.061L109.305 270.801C112.012 271.354 114.093 272.238 115.549 273.453C117.029 274.681 117.768 276.467 117.768 278.813C117.768 281.267 116.896 283.204 115.152 284.624C113.443 286.044 110.718 286.753 106.977 286.753Z" fill="#0B2540"/>
<path d="M128.292 286.429V260.55H140.058C142.62 260.55 144.689 261.356 146.266 262.969C147.817 264.593 148.593 266.632 148.593 269.086C148.593 271.613 147.817 273.688 146.266 275.312C144.689 276.96 142.62 277.784 140.058 277.784H134.102V286.429H128.292ZM134.102 272.605H138.903C141.417 272.605 142.674 271.432 142.674 269.086C142.674 267.979 142.343 267.131 141.682 266.542C141.008 265.976 140.082 265.694 138.903 265.694H134.102V272.605Z" fill="#0B2540"/>
<path d="M159.315 286.429V260.55H177.794V265.73H165.126V270.494H176.657V275.673H165.126V281.285H177.794V286.429H159.315Z" fill="#0B2540"/>
<path d="M199.957 286.753C195.987 286.753 192.907 285.514 190.718 283.036C188.516 280.546 187.415 277.375 187.415 273.526C187.415 269.616 188.504 266.427 190.681 263.961C192.883 261.471 195.975 260.226 199.957 260.226C203.205 260.226 205.876 261.2 207.97 263.149C210.087 265.122 211.236 267.51 211.416 270.313H205.497C205.389 268.978 204.86 267.835 203.909 266.885C202.971 265.946 201.654 265.477 199.957 265.477C197.816 265.477 196.174 266.163 195.031 267.534C193.9 268.894 193.334 270.891 193.334 273.526C193.334 276.136 193.9 278.121 195.031 279.481C196.174 280.864 197.816 281.556 199.957 281.556C201.581 281.556 202.863 281.123 203.801 280.257C204.703 279.427 205.281 278.32 205.533 276.936H211.416C211.164 279.715 209.979 282.043 207.861 283.92C205.732 285.809 203.097 286.753 199.957 286.753Z" fill="#0B2540"/>
<path d="M227.552 286.429V265.766H220.099V260.55H240.87V265.766H233.399V286.429H227.552Z" fill="#0B2540"/>
<path d="M266.588 276.593L272.832 286.068V286.429H266.028L260.452 277.297H256.825V286.429H251.014V260.55H262.852C265.487 260.55 267.629 261.356 269.277 262.969C270.877 264.569 271.677 266.512 271.677 268.797C271.677 270.614 271.232 272.214 270.341 273.598C269.427 274.969 268.176 275.968 266.588 276.593ZM256.825 265.73V272.118H262.546C263.616 272.118 264.416 271.799 264.946 271.162C265.463 270.536 265.722 269.76 265.722 268.834C265.722 267.979 265.463 267.239 264.946 266.614C264.392 266.024 263.592 265.73 262.546 265.73H256.825Z" fill="#0B2540"/>
<path d="M293.894 286.753C289.9 286.753 286.808 285.514 284.618 283.036C282.417 280.546 281.316 277.363 281.316 273.489C281.316 269.604 282.417 266.415 284.618 263.925C286.796 261.459 289.888 260.226 293.894 260.226C297.924 260.226 301.028 261.459 303.206 263.925C305.371 266.379 306.454 269.567 306.454 273.489C306.454 277.399 305.371 280.582 303.206 283.036C301.016 285.514 297.912 286.753 293.894 286.753ZM293.894 281.52C296.047 281.52 297.696 280.828 298.839 279.445C299.969 278.085 300.535 276.1 300.535 273.489C300.535 270.855 299.969 268.858 298.839 267.498C297.72 266.151 296.071 265.477 293.894 265.477C291.704 265.477 290.05 266.151 288.931 267.498C287.8 268.858 287.235 270.855 287.235 273.489C287.235 276.064 287.812 278.049 288.967 279.445C290.11 280.828 291.752 281.52 293.894 281.52Z" fill="#0B2540"/>
<path d="M327.751 286.753C324.587 286.753 321.976 285.845 319.919 284.028C317.849 282.224 316.815 279.613 316.815 276.196V260.55H322.607V276.124C322.607 279.77 324.322 281.592 327.751 281.592C331.203 281.592 332.93 279.77 332.93 276.124V260.55H338.759V276.196C338.759 279.613 337.736 282.224 335.691 284.028C333.598 285.845 330.951 286.753 327.751 286.753Z" fill="#0B2540"/>
<path d="M356.013 286.429V265.766H348.56V260.55H369.331V265.766H361.86V286.429H356.013Z" fill="#0B2540"/>
<path d="M379.475 286.429V260.55H397.955V265.73H385.286V270.494H396.818V275.673H385.286V281.285H397.955V286.429H379.475Z" fill="#0B2540"/>
<path fill-rule="evenodd" clip-rule="evenodd" d="M128.03 4.6669C127.952 4.65629 127.874 4.64568 127.797 4.6339C126.846 4.30217 125.868 4.05415 124.889 3.80604C123.1 3.35252 121.31 2.89869 119.689 1.93278C113.82 0.923987 107.927 0.0848831 101.95 0.0801691C92.454 0.0734336 82.9583 0.0682386 73.4626 0.0630435C49.7293 0.0500593 25.996 0.037075 2.26275 3.9118e-05C0.575138 -0.00467489 -0.00468553 0.414867 2.84778e-05 2.23447C0.0512323 17.1962 0.0505262 32.1555 0.04982 47.1159C0.0496751 50.1864 0.0495302 53.2569 0.049834 56.3275H0V133.778L0.038802 133.802C0.0371401 143.708 0.0353164 153.615 0.0334928 163.521L0.0334927 163.522C0.029958 182.723 0.0264232 201.924 0.0240662 221.125C0.655743 221.29 1.28271 221.455 1.90967 221.634C2.23387 221.624 2.55339 221.62 2.8729 221.615L2.87604 221.615C3.13998 221.6 3.40393 221.582 3.66787 221.564C4.26187 221.524 4.85588 221.483 5.44988 221.483C8.97641 221.48 12.503 221.476 16.0298 221.473H16.0316H16.0335H16.0438C34.5752 221.454 53.1089 221.436 71.6392 221.488C73.7134 221.492 74.2791 220.931 74.2696 218.857C74.2137 205.166 74.2174 191.478 74.2211 177.79V177.785V177.785V177.785C74.2224 173.023 74.2237 168.262 74.2225 163.501C74.2225 163.362 74.2184 163.221 74.2143 163.08C74.1835 162.014 74.1539 160.991 75.9242 161.408H76.9C77.6731 161.403 78.4415 161.403 79.2146 161.403C86.7712 161.398 94.3277 161.398 101.884 161.398C103.28 161.379 104.676 161.356 106.072 161.333L106.099 161.332C106.65 161.316 107.2 161.298 107.751 161.28C108.301 161.263 108.852 161.245 109.403 161.228C110.101 160.729 110.872 160.778 111.645 160.827C111.849 160.84 112.052 160.853 112.255 160.856C112.316 160.853 112.378 160.85 112.44 160.847C112.511 160.843 112.582 160.84 112.653 160.837C112.787 160.831 112.92 160.825 113.052 160.818C113.655 160.323 114.358 160.333 115.074 160.422L115.197 160.412C115.313 160.401 115.429 160.392 115.545 160.382C115.63 160.375 115.714 160.368 115.798 160.361C115.871 160.355 115.944 160.349 116.017 160.342C116.752 159.965 117.521 159.729 118.364 159.871L118.577 159.795L118.803 159.814C119.845 159.277 120.971 159.107 122.121 159.018C122.295 158.975 122.469 158.938 122.643 158.9L122.645 158.9C124.134 158.207 125.709 157.787 127.316 157.495C127.427 157.469 127.536 157.442 127.646 157.415C127.756 157.388 127.865 157.361 127.976 157.335C128.434 156.821 129.032 156.675 129.687 156.67C129.843 156.618 129.999 156.571 130.154 156.524C130.23 156.481 130.304 156.439 130.378 156.397L130.442 156.36C130.495 156.33 130.548 156.299 130.602 156.269L139.554 152.267C140.115 151.763 140.747 151.386 141.501 151.244C141.753 151.112 142.005 150.979 142.257 150.846C142.51 150.713 142.762 150.58 143.014 150.448C143.613 149.74 144.362 149.278 145.253 149.038L145.291 149.014C145.46 148.652 145.762 148.496 146.152 148.487L146.139 148.496L146.153 148.486L146.152 148.487C146.21 148.444 146.268 148.401 146.325 148.358C146.349 148.34 146.374 148.321 146.398 148.303L146.399 148.302C146.485 148.238 146.571 148.173 146.658 148.109L146.714 148.076C147.285 147.303 148.096 146.893 148.963 146.558C149.049 146.497 149.133 146.436 149.218 146.376L149.228 146.369L149.236 146.363C149.295 146.321 149.353 146.279 149.412 146.237C149.445 146.214 149.477 146.191 149.51 146.167C149.587 146.104 149.663 146.042 149.739 145.98C149.816 145.917 149.893 145.854 149.972 145.79L150.052 145.729C150.186 145.635 150.32 145.539 150.454 145.444C150.539 145.384 150.624 145.323 150.709 145.263C150.759 145.228 150.808 145.193 150.858 145.158L150.839 145.177C151.009 145.031 151.183 144.89 151.358 144.744L151.367 144.739C151.443 144.682 151.518 144.627 151.593 144.572L151.641 144.536C151.66 144.522 151.679 144.508 151.699 144.494C151.739 144.464 151.779 144.434 151.82 144.404C152.103 144.187 152.381 143.97 152.663 143.749C152.692 143.725 152.72 143.702 152.749 143.679L152.767 143.664C152.824 143.617 152.882 143.571 152.939 143.524L152.946 143.518C153.04 143.442 153.135 143.365 153.229 143.287C157.241 139.775 160.97 135.976 164.515 131.992L164.625 131.855L164.747 131.702C164.823 131.608 164.899 131.513 164.976 131.417C165.126 131.225 165.278 131.036 165.43 130.845L165.431 130.844L165.433 130.842C165.501 130.757 165.569 130.673 165.636 130.587C165.745 130.437 165.858 130.286 165.971 130.135L165.976 130.125C166.049 130.038 166.121 129.951 166.193 129.864L166.265 129.776C166.313 129.718 166.361 129.66 166.41 129.602L166.391 129.621L166.459 129.538L166.461 129.535C166.587 129.381 166.711 129.23 166.839 129.079L166.815 129.098C167.566 127.546 168.621 126.2 169.676 124.854C169.826 124.663 169.975 124.472 170.124 124.28C170.119 124.143 170.176 124.054 170.303 124.002C170.374 123.399 170.657 122.932 171.171 122.602L171.175 122.588C171.406 122.189 171.636 121.791 171.866 121.392C172.096 120.994 172.326 120.596 172.557 120.198C174.071 117.057 175.59 113.916 177.108 110.775L177.112 110.768L177.116 110.76L177.134 110.723C177.398 109.945 177.662 109.172 177.926 108.399C177.997 108.257 178.067 108.111 178.138 107.965C178.244 107.63 178.35 107.295 178.456 106.96L178.885 105.606L179.147 104.776C179.309 104.267 179.47 103.757 179.632 103.246V103.241C179.628 102.718 179.675 102.209 180.104 101.832V101.827C180.069 101.632 180.089 101.423 180.109 101.213C180.154 100.74 180.198 100.268 179.613 99.9605C179.503 99.9672 179.392 99.9769 179.28 99.9866C179.078 100.004 178.876 100.022 178.675 100.022C152.171 100.019 125.666 100.016 99.1619 100.012L73.9299 100.009V67.4288C108.944 67.4284 143.958 67.4273 178.972 67.4244C179.071 67.4244 179.17 67.4221 179.268 67.4198C179.485 67.4148 179.701 67.4097 179.915 67.4292C181.244 67.5564 181.635 67.2123 181.348 65.7085C180.169 59.5992 178.213 53.7491 175.898 47.998L175.747 47.8802L175.79 47.7058C175.446 46.972 175.105 46.2356 174.765 45.5005C174.657 45.2675 174.55 45.0346 174.442 44.8019C173.975 44.4484 173.706 43.977 173.65 43.3924C173.632 43.3408 173.614 43.2897 173.597 43.2388C173.562 43.141 173.528 43.0438 173.494 42.9446C172.905 42.6241 172.745 42.0584 172.636 41.4644L172.599 41.3984C172.544 41.3168 172.492 41.2326 172.441 41.1496C172.421 41.1176 172.401 41.0858 172.382 41.0543C172.266 40.856 172.149 40.6577 172.032 40.4594C171.916 40.2617 171.799 40.064 171.684 39.8664C171.64 39.7921 171.596 39.7182 171.553 39.6446C171.447 39.466 171.343 39.2891 171.236 39.1121L171.18 39.0414C171.159 39.0074 171.139 38.9738 171.119 38.9404C171.07 38.8583 171.023 38.7778 170.972 38.6973C170.916 38.5897 170.861 38.4805 170.805 38.3706C170.769 38.2974 170.732 38.2239 170.694 38.1505C170.176 37.8346 169.864 37.3868 169.798 36.774C169.723 36.6373 169.643 36.5006 169.563 36.3639C169.082 36.1989 168.936 35.8029 168.87 35.3551C168.82 35.2938 168.771 35.2313 168.721 35.1689C168.672 35.1064 168.622 35.0439 168.573 34.9827C167.856 34.2803 167.258 33.493 166.885 32.5502L166.461 31.9563C166.409 31.8974 166.356 31.8386 166.303 31.7798C166.25 31.7207 166.197 31.6617 166.145 31.6027C161.318 25.7055 155.986 20.3221 149.872 15.7448C149.736 15.6342 149.598 15.5236 149.461 15.413C149.322 15.3021 149.184 15.1911 149.047 15.0801C148.958 15.0141 148.867 14.9493 148.776 14.8845C148.686 14.8197 148.595 14.7549 148.505 14.6889C148.402 14.6111 148.298 14.5345 148.194 14.4579C148.09 14.3813 147.987 14.3047 147.883 14.2269C147.756 14.1377 147.628 14.0472 147.5 13.9568C147.371 13.8658 147.242 13.7747 147.115 13.6848C146.965 13.6054 146.816 13.5241 146.665 13.4421C146.583 13.3974 146.5 13.3525 146.417 13.3077C146.29 13.3171 146.21 13.2605 146.177 13.1332C146.137 13.1004 146.097 13.0678 146.058 13.0354C145.939 12.9376 145.821 12.8411 145.7 12.742C145.54 12.6901 145.385 12.6336 145.229 12.577C144.965 12.6241 144.838 12.5016 144.819 12.247L144.786 12.2187C144.22 12.0632 143.669 11.8793 143.348 11.3278H143.343C142.429 11.0638 141.618 10.6207 140.944 9.93715C140.72 9.82637 140.495 9.7156 140.27 9.60482C140.045 9.49404 139.82 9.38326 139.596 9.27248C139.425 9.19994 139.249 9.13667 139.073 9.07342C138.524 8.8761 137.975 8.67904 137.579 8.2017L137.668 8.11756L137.564 8.18354C137.569 8.18964 137.574 8.19569 137.579 8.2017L137.578 8.2024C136.697 8.07041 135.928 7.69801 135.259 7.11819C135.101 7.0498 134.944 6.98023 134.787 6.91067C134.631 6.84117 134.474 6.77167 134.316 6.70335L134.132 6.73635L134.024 6.57136L133.934 6.53836C133.917 6.53979 133.9 6.54127 133.883 6.54274C133.504 6.57527 133.129 6.60748 132.935 6.15653C132.786 6.14003 132.637 6.12471 132.487 6.10938C132.337 6.09406 132.188 6.07874 132.039 6.06224C131.629 6.14238 131.257 6.14239 131.087 5.65684C130.938 5.63352 130.784 5.61019 130.63 5.58686L130.625 5.58614C129.762 5.49186 128.937 5.29858 128.263 4.6999C128.186 4.68812 128.108 4.67751 128.03 4.6669ZM297.614 104.002L297.611 104.004C297.463 104.089 297.315 104.175 297.167 104.26C296.295 105.066 295.32 105.693 294.188 106.004L294.16 106.023C293.985 106.419 293.651 106.513 293.264 106.504C293.09 106.895 292.741 106.975 292.364 107.013C289.828 108.828 287.079 110.284 284.312 111.703C284.27 111.816 284.19 111.854 284.077 111.816C283.798 112.269 283.351 112.443 282.865 112.566L282.804 112.622C282.771 112.811 282.705 112.957 282.474 112.816C282.231 112.943 281.987 113.069 281.742 113.195L281.573 113.283C281.386 113.38 281.199 113.477 281.013 113.575C280.673 114.074 280.239 114.418 279.608 114.433C279.48 114.517 279.344 114.564 279.193 114.574C278.863 115.135 278.359 115.413 277.727 115.498C277.496 115.631 277.267 115.764 277.037 115.898C276.755 116.061 276.473 116.225 276.19 116.389C276.051 116.471 275.911 116.553 275.772 116.634C275.633 116.716 275.495 116.797 275.356 116.879L275.342 116.889C274.691 117.572 273.899 118.01 272.999 118.256C272.928 118.373 272.829 118.416 272.697 118.392C272.583 118.482 272.473 118.578 272.363 118.674L272.363 118.674L272.362 118.674C272.125 118.88 271.888 119.087 271.618 119.231C269.086 120.598 267.964 119.957 267.95 117.115C267.94 114.634 267.942 112.151 267.944 109.669C267.946 107.463 267.947 105.257 267.941 103.053C267.941 102.367 267.895 101.683 267.85 100.999L267.85 100.995C267.828 100.669 267.806 100.343 267.79 100.017C265.432 100.017 263.074 100.017 260.717 100.018C253.651 100.019 246.585 100.019 239.52 100.012C230.855 100.001 222.192 99.9847 213.529 99.9683H213.525H213.522C207.741 99.9573 201.961 99.9464 196.179 99.9369C195.861 100.085 195.512 100.097 195.163 100.109C194.699 100.125 194.236 100.141 193.846 100.474C193.85 100.535 193.854 100.595 193.859 100.656C193.863 100.706 193.868 100.757 193.872 100.807C193.89 101.009 193.907 101.212 193.907 101.412C193.904 114.296 193.9 127.179 193.896 140.063C193.887 165.829 193.879 191.596 193.879 217.363C193.879 217.663 193.878 217.942 193.877 218.201V218.201C193.87 220.044 193.867 220.877 194.278 221.24C194.618 221.54 195.24 221.52 196.377 221.483C196.85 221.467 197.411 221.449 198.079 221.45C214.342 221.471 230.603 221.456 246.864 221.441H246.866H246.867C252.678 221.435 258.49 221.43 264.301 221.426C266.161 221.426 267.081 221.426 267.536 220.966C267.983 220.515 267.983 219.622 267.983 217.853C267.983 216.189 267.984 214.526 267.985 212.862C267.985 211.504 267.986 210.146 267.986 208.788C267.992 193.661 267.998 178.534 267.955 163.411C267.955 161.837 268.223 161.144 269.977 161.243C271.753 161.343 273.536 161.321 275.319 161.299C276.129 161.289 276.94 161.279 277.75 161.28C277.855 161.281 277.961 161.278 278.067 161.276C278.735 161.26 279.398 161.244 279.801 162.03C280.187 162.783 280.683 163.469 281.179 164.156L281.179 164.156C281.875 165.119 282.571 166.082 282.964 167.229C283.492 167.394 283.714 167.795 283.799 168.304L283.827 168.347C283.901 168.445 283.978 168.544 284.055 168.643L284.133 168.743C284.357 169.092 284.583 169.439 284.808 169.785L284.813 169.793L284.956 170.012C285.046 170.152 285.137 170.291 285.227 170.43C285.859 171.029 286.415 171.675 286.608 172.556L286.641 172.613C287.673 173.688 288.404 174.965 289.045 176.294C289.116 176.396 289.185 176.497 289.255 176.598C289.324 176.7 289.394 176.801 289.465 176.902C289.809 177.067 289.955 177.35 289.964 177.718L289.974 177.732C290.087 177.883 290.205 178.034 290.323 178.185C290.422 178.303 290.474 178.439 290.483 178.595C291.1 178.92 291.416 179.472 291.628 180.103C291.707 180.256 291.782 180.405 291.856 180.553L291.857 180.556L291.859 180.561C292.369 180.9 292.67 181.376 292.788 181.97L292.793 181.979C293.274 182.338 293.684 182.738 293.707 183.389C293.787 183.497 293.868 183.605 293.948 183.712L293.951 183.716C294.03 183.822 294.109 183.928 294.188 184.035L294.344 184.096L294.292 184.237C294.429 184.431 294.566 184.625 294.704 184.82C294.842 185.014 294.98 185.209 295.117 185.402C295.49 185.525 295.536 185.835 295.582 186.148L295.583 186.149C295.586 186.172 295.589 186.195 295.593 186.217L295.617 186.246C296.163 186.547 296.427 187.042 296.55 187.632C296.625 187.735 296.699 187.839 296.774 187.942C296.848 188.046 296.922 188.15 296.998 188.254C297.529 188.705 297.915 189.242 298.029 189.946L298.021 189.941L298.03 189.951L298.029 189.946C298.585 190.267 298.875 190.77 299.025 191.374C299.326 191.846 299.633 192.322 299.935 192.793C300.335 192.954 300.458 193.293 300.505 193.68C300.618 193.845 300.731 194.005 300.844 194.17C300.903 194.262 300.963 194.354 301.023 194.445L301.082 194.536C301.123 194.598 301.163 194.66 301.203 194.721L301.259 194.797C301.311 194.856 301.362 194.916 301.412 194.976C301.463 195.036 301.514 195.096 301.566 195.155C301.631 195.305 301.701 195.459 301.771 195.613L301.772 195.616L301.773 195.617C302.723 196.338 303.185 197.383 303.648 198.432L303.657 198.452L303.654 198.45L303.659 198.455L303.657 198.452C304.055 198.641 304.177 199.003 304.257 199.398C304.37 199.539 304.484 199.685 304.597 199.827C305.082 200.199 305.525 200.595 305.45 201.293C305.665 201.588 305.882 201.881 306.099 202.173L306.101 202.176L306.103 202.179C306.623 202.881 307.143 203.582 307.628 204.31C311.041 209.448 314.449 214.586 317.834 219.743C318.56 220.851 319.337 221.483 320.832 221.478C347.06 221.426 373.294 221.436 399.523 221.464C401.008 221.464 401.446 221.214 400.503 219.8C399.414 218.173 398.384 216.506 397.355 214.841C396.905 214.114 396.456 213.387 396.001 212.663C395.407 212.324 395.068 211.791 394.879 211.15C394.794 210.999 394.71 210.853 394.625 210.702C394.04 210.263 393.644 209.698 393.517 208.967L393.518 208.966L393.526 208.972L393.583 208.816L393.518 208.966C392.809 208.482 392.406 207.804 392.218 206.981L392.225 206.987L392.216 206.973L392.218 206.981C391.11 206.1 390.536 204.868 389.981 203.617C389.816 203.405 389.656 203.188 389.496 202.976C388.921 202.561 388.573 202.006 388.469 201.304L388.473 201.307L388.468 201.302L388.469 201.304C387.92 200.988 387.605 200.509 387.492 199.893C387.365 199.699 387.238 199.501 387.111 199.308C386.757 199.138 386.583 198.856 386.583 198.464C386.387 198.165 386.19 197.867 385.993 197.569C385.797 197.271 385.6 196.972 385.404 196.673C384.447 195.711 383.66 194.637 383.226 193.331L383.245 193.35C383.108 193.166 382.976 192.982 382.84 192.798C382.77 192.697 382.701 192.595 382.631 192.493C382.541 192.361 382.451 192.228 382.361 192.096C382.281 191.977 382.201 191.859 382.12 191.741C382.041 191.625 381.962 191.509 381.883 191.393C381.364 191.054 381.034 190.597 380.954 189.97L380.949 189.965C379.992 189.102 379.38 188.013 378.885 186.849C378.883 186.849 378.884 186.846 378.886 186.842C378.889 186.837 378.894 186.83 378.894 186.83L378.795 186.675L378.795 186.674C378.704 186.531 378.611 186.386 378.522 186.241C378.52 186.241 378.521 186.244 378.524 186.248C378.528 186.255 378.536 186.265 378.536 186.265C377.862 185.765 377.39 185.133 377.216 184.299L377.197 184.266C375.769 183.441 375.156 182.078 374.774 180.57C374.726 180.499 374.677 180.428 374.629 180.357C374.545 180.235 374.46 180.113 374.373 179.99C373.672 179.853 373.577 179.305 373.481 178.758L373.464 178.656C373.371 178.544 373.28 178.432 373.189 178.321C373.103 178.216 373.018 178.111 372.931 178.006L372.794 177.935L372.855 177.808C372.794 177.699 372.732 177.591 372.669 177.482C372.607 177.374 372.544 177.265 372.483 177.157C372.425 177.143 372.366 177.13 372.306 177.118C371.893 177.031 371.48 176.944 371.715 176.285C371.674 176.158 371.63 176.029 371.586 175.899L371.536 175.752C371.446 175.63 371.352 175.502 371.257 175.38C371.217 175.304 371.178 175.23 371.139 175.156L371.117 175.112C371.085 175.052 371.054 174.993 371.022 174.932C370.877 174.757 370.695 174.606 370.513 174.455C370.069 174.088 369.626 173.72 369.716 172.995C369.598 172.919 369.546 172.815 369.57 172.674C369.282 172.551 369.018 172.41 369.084 172.023C368.938 171.76 368.788 171.497 368.637 171.233L368.636 171.232C368.038 170.92 367.774 170.383 367.623 169.761C367.477 169.537 367.331 169.314 367.185 169.091C367.038 168.869 366.892 168.646 366.746 168.422C366.619 168.219 366.492 168.012 366.364 167.809L366.35 167.781C366.232 167.639 366.119 167.498 366.006 167.357C365.86 167.277 365.794 167.154 365.808 166.989C365.697 166.828 365.585 166.668 365.473 166.508C365.361 166.347 365.249 166.187 365.139 166.027C365.007 165.985 364.941 165.895 364.941 165.759C364.597 165.617 364.46 165.344 364.465 164.985L364.455 164.971C364.083 164.759 363.79 164.486 363.743 164.029C363.658 163.878 363.578 163.722 363.498 163.571C363.267 163.505 363.093 163.402 363.173 163.119C363.041 163.015 362.98 162.883 362.994 162.713C362.928 162.619 362.863 162.525 362.798 162.43L362.796 162.428C362.732 162.335 362.668 162.241 362.603 162.148L362.574 162.11C362.52 162.042 362.467 161.973 362.414 161.905C362.361 161.837 362.308 161.768 362.254 161.7C362.183 161.563 362.117 161.426 362.051 161.29C361.98 161.2 361.911 161.11 361.841 161.021C361.787 160.951 361.733 160.881 361.678 160.811L361.631 160.752C361.509 160.733 361.466 160.663 361.499 160.54C361.462 160.476 361.425 160.412 361.387 160.348L361.292 160.186L361.29 160.183L361.288 160.18C361.223 160.069 361.157 159.959 361.093 159.848L361.099 159.852L361.085 159.833L361.093 159.848C360.306 159.258 359.893 158.411 359.479 157.563L359.479 157.563L359.411 157.424C359.279 157.335 359.218 157.207 359.227 157.042C359.1 156.859 358.977 156.67 358.85 156.486L358.812 156.415L358.501 156.048C358.321 155.771 358.141 155.494 357.961 155.216L357.444 154.421C357.094 153.882 356.744 153.342 356.394 152.805C356.257 152.621 356.125 152.437 355.993 152.253L355.97 152.225C355.414 151.914 355.216 151.395 355.131 150.806L355.046 150.697C354.952 150.594 354.853 150.495 354.758 150.396C354.747 150.371 354.735 150.347 354.723 150.323C354.701 150.277 354.68 150.232 354.658 150.186C354.617 150.099 354.576 150.012 354.534 149.924L354.532 149.92C354.469 149.835 354.407 149.752 354.345 149.669L354.333 149.654C354.274 149.575 354.215 149.495 354.155 149.415L354.108 149.354C353.523 148.906 353.17 148.312 353 147.605C352.161 146.865 352.152 146.224 353.231 145.715C353.481 145.14 353.943 144.847 354.537 144.729C360.189 140.091 365.351 134.967 369.829 129.168C369.879 129.112 369.929 129.057 369.98 129.001L370.026 128.951C370.061 128.912 370.096 128.873 370.131 128.834L370.202 128.74C370.324 128.584 370.451 128.433 370.574 128.278C370.626 128.209 370.68 128.141 370.733 128.073C370.778 128.016 370.823 127.959 370.867 127.902C370.908 127.85 370.949 127.797 370.989 127.745C371.191 126.892 371.738 126.284 372.379 125.737C372.521 125.483 372.662 125.224 372.803 124.965L372.804 124.964C372.762 124.577 373.007 124.391 373.251 124.206L373.251 124.206C373.311 124.161 373.371 124.116 373.426 124.068L373.449 124.016C373.624 123.177 374.114 122.536 374.746 121.989C374.741 121.838 374.802 121.716 374.925 121.626C375.033 121.452 375.137 121.277 375.245 121.103C375.496 120.647 375.744 120.193 375.993 119.738L375.999 119.728C376.25 119.269 376.502 118.81 376.754 118.35C376.877 118.166 376.994 117.987 377.117 117.803L377.103 117.822L380.2 110.822C384.07 100.465 386.092 89.8018 385.852 78.7003C385.736 73.4697 384.872 68.362 384.007 63.2474C383.884 62.5218 383.762 61.7962 383.641 61.07C383.601 60.9521 383.561 60.8331 383.521 60.7141C383.481 60.595 383.441 60.476 383.401 60.3582C383.363 60.1932 383.325 60.0329 383.288 59.8679C382.8 59.3531 382.805 58.7171 382.811 58.0801L382.811 57.9964L382.807 57.987C382.448 57.756 382.387 57.4119 382.439 57.0254L382.401 56.9028C382.147 56.7095 382.02 56.4691 382.123 56.1438C382.029 55.8233 381.935 55.498 381.84 55.1728C381.336 54.4609 381.03 53.6784 381.006 52.7969C380.916 52.6649 380.883 52.5188 380.912 52.3585C380.873 52.2806 380.833 52.2038 380.793 52.127L380.791 52.1244L380.789 52.1204L380.787 52.1165L380.786 52.1138C380.746 52.0371 380.706 51.9603 380.667 51.8824L380.37 51.1046C380.349 51.0566 380.328 51.0087 380.308 50.9608C380.282 50.9005 380.256 50.8403 380.231 50.7801C380.185 50.6714 380.139 50.5627 380.091 50.454C380.028 50.3076 379.965 50.1599 379.902 50.0123C379.84 49.8653 379.778 49.7183 379.714 49.5725C379.154 48.6831 378.698 47.756 378.532 46.7022L378.536 46.7064L378.531 46.697L378.532 46.7022C377.893 46.0196 377.465 45.2196 377.258 44.307C377.216 44.256 377.173 44.2057 377.129 44.1555C376.843 43.8245 376.558 43.4952 376.636 42.9918C376.44 42.6848 376.24 42.3805 376.04 42.076C375.221 40.8328 374.402 39.5884 373.902 38.1646L373.874 38.1269C373.82 38.0587 373.764 37.9916 373.709 37.9245L373.709 37.9243C373.653 37.8571 373.598 37.7899 373.544 37.7215C373.5 37.6047 373.453 37.4907 373.406 37.3752L373.365 37.2737C372.264 36.1153 371.409 34.78 370.555 33.4457C370.293 33.037 370.032 32.6284 369.763 32.225C365.054 26.1533 359.604 20.8171 353.585 16.0559C353.212 16.0324 352.939 15.8532 352.783 15.5091L352.189 15.0424C350.954 14.4532 349.78 13.7838 348.875 12.7279C348.795 12.6972 348.714 12.6666 348.633 12.6359C348.551 12.6053 348.47 12.5746 348.39 12.544C348.328 12.4898 348.266 12.4368 348.204 12.3837C348.141 12.3307 348.079 12.2777 348.017 12.2235L347.961 12.1763C347.414 12.1527 347.004 11.8982 346.721 11.4362C346.617 11.4739 346.547 11.4362 346.514 11.3278C345.868 11.2618 345.406 10.8941 345.01 10.4133C344.85 10.4274 344.722 10.3709 344.628 10.2436L344.147 9.92774C343.746 9.92774 343.398 9.82874 343.2 9.43748C342.971 9.33144 342.741 9.2254 342.512 9.11935C342.282 9.01327 342.052 8.90718 341.823 8.80109C341.3 8.79637 340.928 8.52769 340.635 8.11757C340.513 8.15056 340.433 8.10813 340.39 7.99028C339.994 8.01856 339.645 7.94314 339.443 7.55188H339.447C338.245 7.32089 337.166 6.82121 336.171 6.11882L336.157 6.11411C335.285 6.03398 334.488 5.76055 333.819 5.17602C333.701 5.15121 333.581 5.13047 333.462 5.10974L333.461 5.1097C333.195 5.06347 332.929 5.01728 332.678 4.92618C323.533 1.6028 314.067 0.0990457 304.37 0.0896177C289.95 0.0783044 275.529 0.0775487 261.108 0.076793C239.476 0.0756595 217.844 0.074526 196.212 0.0377562C194.303 0.0377562 193.803 0.579871 193.808 2.41362C193.86 23.3815 193.86 44.3541 193.813 65.3267C193.808 66.9483 194.232 67.4527 195.911 67.448C219.24 67.3914 242.565 67.3915 265.895 67.4433C267.554 67.4433 268.021 66.9672 267.992 65.3362C267.903 60.2309 267.931 55.1256 267.978 50.0203C268.002 47.7906 269.284 47.0788 271.222 48.163C272.169 48.6955 273.094 49.2647 274.02 49.834L274.022 49.8352L274.023 49.8359C274.465 50.1077 274.907 50.3795 275.351 50.6473C275.412 50.6969 275.474 50.7454 275.535 50.7938L275.625 50.8647C275.656 50.8895 275.688 50.9144 275.719 50.9396L275.785 50.9631C276.418 51.0007 276.878 51.3366 277.268 51.7994L277.26 51.7975L277.274 51.807L277.268 51.7994C277.962 51.9649 278.573 52.2851 279.061 52.8205L279.094 52.844C279.438 52.8818 279.773 52.9383 279.938 53.306L280.532 53.7161C282.255 54.3606 283.789 55.3477 285.32 56.334L285.321 56.3345L285.321 56.3347C285.716 56.5889 286.111 56.8431 286.509 57.0914L286.603 57.1526C287.103 57.2233 287.532 57.4072 287.772 57.8927C287.9 57.8645 287.994 57.9069 288.055 58.02C288.965 58.2651 289.762 58.7035 290.408 59.3965C291.308 59.6746 292.095 60.146 292.793 60.7683C293.415 60.872 293.934 61.136 294.254 61.7064C294.352 61.7509 294.449 61.796 294.546 61.8411C294.609 61.8701 294.671 61.8991 294.733 61.9281C294.836 61.9761 294.939 62.0241 295.042 62.0717C295.098 62.0978 295.155 62.1237 295.211 62.1495L295.367 62.1071L295.437 62.2673L295.555 62.3286C296.861 62.8566 298.105 63.4977 299.166 64.4499C299.291 64.5183 299.415 64.5878 299.539 64.6573C299.662 64.7269 299.786 64.7964 299.911 64.8648C300.241 65.0675 300.571 65.2654 300.906 65.4634C301.042 65.4351 301.155 65.4729 301.254 65.5719C301.558 65.5391 301.695 65.7057 301.757 65.9705L301.745 65.9631L301.759 65.9772L301.757 65.9705C301.838 66.0177 301.918 66.0648 301.997 66.112L302.187 66.2243L302.198 66.2308C302.342 66.316 302.486 66.4012 302.631 66.4864C302.678 66.5071 302.725 66.5282 302.772 66.5495C302.805 66.5645 302.838 66.5797 302.871 66.5948L302.876 66.5967C302.933 66.623 302.991 66.6492 303.048 66.675C303.069 66.6844 303.091 66.6939 303.112 66.7032L303.378 66.8298C304.812 67.5119 306.246 68.1933 307.449 69.2676C307.816 69.3053 308.156 69.4043 308.325 69.7815C308.717 69.772 309.047 69.8804 309.226 70.267L309.249 70.2811C312.059 71.6058 314.737 73.1614 317.292 74.9291C317.445 75.0211 317.598 75.112 317.752 75.2028C317.905 75.2934 318.058 75.3841 318.211 75.476C319.139 75.6975 319.927 76.1642 320.596 76.8383C321.509 77.3528 322.424 77.8616 323.34 78.3703L323.34 78.3705L323.343 78.3722L323.344 78.3724L323.344 78.3726C325.43 79.5318 327.515 80.6905 329.562 81.9153C331.712 83.2022 331.669 84.3383 329.473 85.6959C327.919 86.6535 326.331 87.5531 324.743 88.4519L324.743 88.452L324.743 88.4522C324.158 88.7834 323.573 89.1145 322.991 89.4483C320.102 91.1039 317.213 92.7583 314.323 94.4127L314.242 94.4593L314.16 94.506C311.27 96.1604 308.381 97.8147 305.492 99.4703C303.635 100.866 301.627 101.988 299.506 102.921V102.902C299.308 103.02 299.105 103.138 298.907 103.256L298.912 103.251C298.742 103.35 298.567 103.454 298.398 103.553C298.355 103.67 298.275 103.708 298.157 103.675L298.148 103.812L298.058 103.746C297.91 103.83 297.762 103.916 297.614 104.002Z" fill="#0B2540"/>
</svg>
