<svg width="415" height="342" viewBox="0 0 415 342" fill="none" xmlns="http://www.w3.org/2000/svg">
<g clip-path="url(#clip0_23_95)">
<path d="M240.561 85.6152C240.407 85.8958 240.252 86.1862 240.078 86.4668C240 86.612 239.903 86.7571 239.836 86.8926C239.787 87.0184 239.739 87.1636 239.7 87.2991C239.526 87.87 239.371 88.4894 239.226 89.0894L238.336 92.738C238.055 93.9574 237.784 95.1768 237.532 96.3961C237.378 97.2091 237.223 98.0123 237.126 98.864L267.049 69.7534C264.373 64.0144 262.613 57.8916 261.833 51.6077C257.188 53.8142 251.246 56.553 243.223 59.8821C229.897 65.4081 226.316 94.0154 226.316 94.0154C226.316 94.0154 232.461 95.3703 235.926 94.3638C235.982 93.6615 236.083 92.9633 236.226 92.2735C236.488 90.9608 236.897 89.6817 237.445 88.4604C237.723 87.8347 238.056 87.2354 238.442 86.67C238.539 86.5249 238.655 86.3797 238.781 86.2249L239.042 85.8281C239.226 85.5668 239.391 85.2958 239.555 85.0248C240.91 82.8473 242.197 80.5925 243.465 78.3472L247.288 71.5825C246.242 73.9535 245.168 76.3116 244.065 78.6569C242.942 80.9892 241.82 83.3216 240.561 85.6152ZM228.242 93.7444C227.866 93.731 227.51 93.5722 227.248 93.3015C226.987 93.0307 226.841 92.6691 226.841 92.2928C226.841 91.9165 226.987 91.5548 227.248 91.2841C227.51 91.0133 227.866 90.8545 228.242 90.8411C228.618 90.8545 228.974 91.0133 229.235 91.2841C229.497 91.5548 229.643 91.9165 229.643 92.2928C229.643 92.6691 229.497 93.0307 229.235 93.3015C228.974 93.5722 228.618 93.731 228.242 93.7444ZM233.003 93.7444C232.627 93.731 232.271 93.5722 232.01 93.3015C231.748 93.0307 231.602 92.6691 231.602 92.2928C231.602 91.9165 231.748 91.5548 232.01 91.2841C232.271 91.0133 232.627 90.8545 233.003 90.8411C233.379 90.8545 233.735 91.0133 233.997 91.2841C234.258 91.5548 234.404 91.9165 234.404 92.2928C234.404 92.6691 234.258 93.0307 233.997 93.3015C233.735 93.5722 233.379 93.731 233.003 93.7444Z" fill="#020202"/>
<path d="M237.045 100.187C238.657 100.891 240.369 101.339 242.119 101.516C242.958 101.587 243.802 101.556 244.634 101.421C245.495 101.317 246.333 101.048 247.284 100.837C246.654 101.583 245.848 102.159 244.938 102.513C244.011 102.895 243.006 103.05 242.008 102.962C241.016 102.887 240.052 102.599 239.183 102.116C238.321 101.661 237.586 100.998 237.045 100.187Z" fill="black"/>
<path d="M151.498 146.459C151.344 145.132 151.266 143.798 151.266 142.462L151.498 146.459Z" fill="black"/>
<path d="M151.565 147.64L151.498 146.459C151.742 149.106 152.533 151.673 153.82 153.998C151.372 150.407 151.565 147.64 151.565 147.64Z" fill="black"/>
<path d="M153.907 154.133C154.217 154.588 154.575 155.053 154.972 155.527C154.572 155.099 154.215 154.632 153.907 154.133Z" fill="black"/>
<path d="M357.991 171.853L-0.0844727 169.424V163.569C29.7132 164.043 59.5109 164.401 89.3086 164.643C119.106 164.973 148.904 165.079 178.702 165.253C208.499 165.466 238.307 165.476 268.104 165.534L312.806 165.582L357.159 165.485L357.991 171.853Z" fill="black"/>
<path d="M415.032 130.413V136.423L357.991 171.853L357.885 165.36L372.15 156.688L386.453 147.949L415.032 130.413Z" fill="black"/>
<path d="M223.83 146.639L225.765 146.674" stroke="#020202" stroke-width="1.93554" stroke-miterlimit="10"/>
<path d="M229.747 146.746L275.532 147.571" stroke="#020202" stroke-width="1.93554" stroke-miterlimit="10" stroke-dasharray="3.98 3.98"/>
<path d="M277.522 147.607L279.458 147.642" stroke="#020202" stroke-width="1.93554" stroke-miterlimit="10"/>
<path d="M225.947 143.177L227.883 143.211" stroke="#020202" stroke-width="1.93554" stroke-miterlimit="10"/>
<path d="M231.864 143.283L277.649 144.109" stroke="#020202" stroke-width="1.93554" stroke-miterlimit="10" stroke-dasharray="3.98 3.98"/>
<path d="M279.64 144.144L281.575 144.179" stroke="#020202" stroke-width="1.93554" stroke-miterlimit="10"/>
<path d="M228.502 139.757L230.438 139.791" stroke="#020202" stroke-width="1.93554" stroke-miterlimit="10"/>
<path d="M234.419 139.863L280.204 140.689" stroke="#020202" stroke-width="1.93554" stroke-miterlimit="10" stroke-dasharray="3.98 3.98"/>
<path d="M282.195 140.724L284.13 140.759" stroke="#020202" stroke-width="1.93554" stroke-miterlimit="10"/>
<path d="M63.636 135.973C64.1336 150.011 64.4627 164.049 64.8821 178.087L65.8169 220.201C65.9878 227.22 66.1851 234.239 66.4087 241.258C66.6072 248.277 66.6176 255.296 66.44 262.315L66.074 272.844C65.8889 276.353 65.7651 279.863 65.5159 283.372C65.0825 290.391 64.5288 297.41 63.636 304.429C63.6263 304.505 63.5894 304.575 63.5321 304.625C63.4747 304.676 63.4009 304.703 63.3245 304.703C63.248 304.703 63.1742 304.676 63.1169 304.625C63.0596 304.575 63.0226 304.505 63.013 304.429C62.1201 297.41 61.5664 290.391 61.1333 283.372C60.8838 279.863 60.76 276.353 60.575 272.844L60.209 262.315C60.0286 255.296 60.039 248.277 60.2402 241.258C60.4712 234.239 60.6685 227.22 60.832 220.201L61.7668 178.087C62.1863 164.049 62.5154 150.011 63.0129 135.973C63.0159 135.892 63.05 135.816 63.1081 135.76C63.1662 135.704 63.2438 135.673 63.3244 135.673C63.4051 135.673 63.4827 135.704 63.5408 135.76C63.5989 135.816 63.633 135.892 63.6359 135.973H63.636Z" fill="#020202"/>
<path d="M7.89189 171.745C8.38945 185.783 8.71856 199.821 9.138 213.859L10.0728 255.973C10.2437 262.992 10.441 270.011 10.6646 277.03C10.8633 284.049 10.8738 291.068 10.6959 298.087L10.3298 308.616C10.1448 312.125 10.021 315.635 9.77174 319.144C9.33839 326.163 8.78493 333.182 7.89186 340.201C7.88228 340.277 7.84535 340.347 7.78799 340.397C7.73064 340.448 7.6568 340.476 7.58034 340.476C7.50387 340.476 7.43004 340.448 7.37268 340.397C7.31532 340.347 7.27839 340.277 7.26881 340.201C6.37599 333.182 5.82229 326.163 5.38919 319.144C5.13967 315.635 5.01589 312.125 4.83084 308.616L4.46484 298.087C4.28442 291.068 4.29484 284.049 4.49609 277.03C4.72705 270.011 4.92432 262.992 5.08789 255.973L6.02269 213.859C6.44212 199.821 6.77123 185.783 7.26878 171.745C7.27164 171.664 7.30572 171.588 7.36383 171.532C7.42194 171.476 7.49954 171.444 7.58031 171.444C7.66107 171.444 7.73869 171.476 7.7968 171.532C7.85491 171.588 7.88897 171.664 7.89183 171.745H7.89189Z" fill="#020202"/>
<path d="M407.775 135.973C408.273 150.011 408.602 164.049 409.021 178.087L409.956 220.201C410.127 227.22 410.324 234.239 410.548 241.258C410.746 248.277 410.757 255.296 410.579 262.315L410.213 272.844C410.028 276.353 409.904 279.863 409.655 283.372C409.222 290.391 408.668 297.41 407.775 304.429C407.766 304.505 407.729 304.575 407.671 304.625C407.614 304.676 407.54 304.703 407.464 304.703C407.387 304.703 407.313 304.676 407.256 304.625C407.199 304.575 407.162 304.505 407.152 304.429C406.259 297.41 405.706 290.391 405.272 283.372C405.023 279.863 404.899 276.353 404.714 272.844L404.348 262.315C404.168 255.296 404.178 248.277 404.379 241.258C404.61 234.239 404.808 227.22 404.971 220.201L405.906 178.087C406.325 164.049 406.654 150.011 407.152 135.973C407.155 135.892 407.189 135.816 407.247 135.76C407.305 135.704 407.383 135.673 407.464 135.673C407.544 135.673 407.622 135.704 407.68 135.76C407.738 135.816 407.772 135.892 407.775 135.973H407.775Z" fill="#020202"/>
<path d="M352.032 171.745C352.529 185.783 352.858 199.821 353.278 213.859L354.212 255.973C354.383 262.992 354.581 270.011 354.804 277.03C355.003 284.049 355.013 291.068 354.836 298.087L354.469 308.616C354.284 312.125 354.161 315.635 353.911 319.144C353.478 326.163 352.924 333.182 352.031 340.201C352.022 340.277 351.985 340.347 351.928 340.397C351.87 340.448 351.796 340.476 351.72 340.476C351.644 340.476 351.57 340.448 351.512 340.397C351.455 340.347 351.418 340.277 351.409 340.201C350.515 333.182 349.962 326.163 349.529 319.144C349.279 315.635 349.156 312.125 348.971 308.616L348.604 298.087C348.424 291.068 348.434 284.049 348.636 277.03C348.867 270.011 349.064 262.992 349.228 255.973L350.162 213.859C350.582 199.821 350.911 185.783 351.408 171.745C351.411 171.664 351.446 171.588 351.504 171.532C351.562 171.476 351.639 171.445 351.72 171.445C351.801 171.445 351.878 171.476 351.936 171.532C351.994 171.588 352.028 171.664 352.031 171.745H352.032Z" fill="#020202"/>
<path d="M273.768 44.0662C272.136 44.0137 270.578 43.3696 269.386 42.254C268.172 41.2111 267.101 40.0134 266.2 38.6917C265.291 37.3977 264.474 36.0413 263.755 34.6325C263.024 33.2293 262.374 31.7849 261.81 30.3066L263.354 30.7169C263.089 30.9432 262.78 31.1118 262.447 31.2121C262.113 31.3123 261.762 31.342 261.417 31.2991C260.837 31.2099 260.29 30.9782 259.822 30.6248C259.01 30.0228 258.368 29.2194 257.961 28.2937C257.535 27.3974 257.341 26.4088 257.395 25.418C257.452 24.4173 257.798 23.4547 258.392 22.6473C258.968 21.8907 259.705 21.2724 260.55 20.8376C260.989 20.6022 261.468 20.4514 261.963 20.3931C262.503 20.3315 263.047 20.4629 263.499 20.7641C264.225 21.3817 264.726 22.2222 264.925 23.1544C265.151 23.9998 265.289 24.8662 265.337 25.74L265.072 25.4236C266.173 25.6512 267.32 25.4925 268.318 24.9741C269.337 24.4478 270.257 23.747 271.035 22.9034C272.593 21.1691 273.92 19.2402 274.983 17.1649C276.084 15.102 277.081 12.9788 278.006 10.8233C278.932 8.67535 279.787 6.46177 280.51 4.26783C280.584 4.04439 280.726 3.84978 280.916 3.71158C281.107 3.57339 281.336 3.4986 281.571 3.49781C281.806 3.49702 282.036 3.57027 282.227 3.70718C282.418 3.8441 282.562 4.03774 282.637 4.26069L282.652 4.30694C283.668 7.37902 284.791 10.4642 286.021 13.4555C286.664 14.9395 287.336 16.4049 288.091 17.8028C288.757 19.1452 289.687 20.3394 290.825 21.3139L290.929 21.3889C291.018 21.4536 291.092 21.5364 291.147 21.6319C291.201 21.7274 291.234 21.8334 291.245 21.9429C291.432 24.0332 291.483 26.1048 291.467 28.1916C291.456 29.2371 291.388 30.2813 291.263 31.3194C291.177 32.374 290.917 33.407 290.492 34.3762C290.48 34.4007 290.46 34.4198 290.434 34.4299C290.409 34.4399 290.381 34.4402 290.355 34.4306C290.33 34.421 290.309 34.4022 290.296 34.3779C290.284 34.3537 290.281 34.3256 290.288 34.2993L290.291 34.2905C290.52 33.3053 290.611 32.2928 290.559 31.2825C290.533 30.2653 290.446 29.2495 290.363 28.2334C290.179 26.2044 289.87 24.1684 289.538 22.1724L289.958 22.801C288.459 21.7816 287.216 20.4297 286.326 18.8507C285.439 17.4077 284.645 15.9095 283.95 14.3651C282.568 11.3157 281.414 8.16825 280.498 4.94852L282.64 4.98762C281.793 7.27722 280.853 9.46714 279.821 11.6469C278.795 13.8298 277.613 15.9356 276.284 17.9479C274.969 19.9903 273.414 21.868 271.653 23.5407C270.75 24.3801 269.724 25.0771 268.611 25.608C267.465 26.1583 266.173 26.3258 264.925 26.086C264.854 26.0715 264.791 26.0346 264.743 25.9807C264.695 25.9269 264.666 25.8591 264.661 25.7874L264.659 25.7694C264.607 24.9561 264.452 24.1526 264.198 23.3782C264.013 22.6524 263.587 22.0112 262.989 21.5607C261.904 21.0083 260.309 22.3217 259.608 23.4608C259.272 24.0772 259.101 24.7696 259.111 25.4712C259.121 26.1729 259.311 26.8602 259.663 27.467C259.973 28.0785 260.416 28.6123 260.961 29.0286C261.169 29.1876 261.412 29.2953 261.669 29.343C261.743 29.3575 261.818 29.3562 261.891 29.3391C261.964 29.3219 262.032 29.2894 262.092 29.2437L262.177 29.1843C262.386 29.0381 262.645 28.9812 262.897 29.026C263.149 29.0709 263.372 29.2138 263.518 29.4234C263.568 29.4948 263.607 29.5723 263.636 29.654C264.13 31.0539 264.742 32.4701 265.356 33.8523C265.989 35.2327 266.675 36.5872 267.434 37.8931C268.177 39.1981 269.055 40.4217 270.054 41.5438C271.002 42.7084 272.314 43.5198 273.78 43.8471C273.794 43.8493 273.808 43.8544 273.82 43.862C273.833 43.8695 273.843 43.8794 273.852 43.8912C273.86 43.9029 273.866 43.9162 273.87 43.9302C273.873 43.9443 273.874 43.9589 273.872 43.9733C273.867 43.9981 273.855 44.0208 273.836 44.0377C273.817 44.0546 273.793 44.0646 273.768 44.0662Z" fill="#020202"/>
<path d="M268.358 40.289C268.453 41.0602 268.532 41.8313 268.603 42.6024C268.699 43.4043 268.693 44.215 268.586 45.0154C268.338 46.6736 267.628 48.2286 266.538 49.5025C265.986 50.1463 265.347 50.7095 264.639 51.1758C264.289 51.4068 263.925 51.6175 263.551 51.8068L262.514 52.3243C261.125 53.003 259.742 53.6933 258.328 54.318C255.512 55.593 252.588 56.6273 249.69 57.7076C248.234 58.2327 246.79 58.781 245.36 59.3645C243.922 59.8646 242.546 60.5315 241.263 61.3516C238.851 63.1716 236.885 65.5169 235.515 68.2097C234.058 70.8589 232.821 73.6231 231.817 76.4747C229.872 82.2441 228.323 88.1392 227.18 94.1192L226.507 93.1655C228.19 93.5988 229.899 93.9242 231.623 94.1399C232.485 94.2501 233.353 94.305 234.221 94.3042C235.088 94.3169 235.951 94.1852 236.775 93.9144C236.788 93.909 236.802 93.9063 236.817 93.9065C236.831 93.9067 236.846 93.9098 236.859 93.9155C236.872 93.9213 236.884 93.9295 236.894 93.9399C236.904 93.9503 236.912 93.9626 236.918 93.976C236.927 93.9998 236.927 94.0258 236.92 94.05C236.912 94.0741 236.896 94.095 236.875 94.1092C236.081 94.5759 235.203 94.8824 234.291 95.0115C233.393 95.1745 232.482 95.2594 231.569 95.265C230.662 95.2841 229.753 95.2556 228.849 95.1797C227.941 95.107 227.053 95.0165 226.133 94.8581C225.929 94.8231 225.747 94.713 225.621 94.5496C225.495 94.3862 225.435 94.1814 225.453 93.9759L225.459 93.9042C225.753 90.7911 226.26 87.7018 226.975 84.6579C227.673 81.6051 228.613 78.6125 229.784 75.7083C230.913 72.764 232.37 69.9561 234.126 67.3376C235.904 64.7049 238.193 62.4571 240.858 60.7286C242.216 59.9555 243.631 59.2854 245.09 58.7239C246.504 58.1112 247.892 57.438 249.264 56.7319C252.021 55.3453 254.724 53.8529 257.51 52.544C258.897 51.8772 260.309 51.2625 261.709 50.6225L262.761 50.1483C263.086 50.0105 263.401 49.8539 263.707 49.6791C264.31 49.3297 264.866 48.9051 265.362 48.4157C266.381 47.4112 267.127 46.1632 267.529 44.7899C267.733 44.077 267.856 43.3431 267.894 42.6025C267.965 41.8313 268.045 41.0602 268.139 40.2891C268.142 40.2623 268.155 40.2377 268.175 40.2198C268.196 40.2019 268.222 40.192 268.249 40.192C268.276 40.192 268.302 40.2019 268.322 40.2198C268.342 40.2377 268.355 40.2623 268.358 40.2891L268.358 40.289Z" fill="#020202"/>
<path d="M237.045 100.187C237.664 102.345 237.993 104.575 238.025 106.819C238.143 109.057 238.161 111.297 238.077 113.539C238.01 115.78 237.864 118.02 237.603 120.258C237.386 122.532 236.965 124.783 236.347 126.984L235.379 125.702L249.092 124.938L262.811 124.288L276.531 123.698C281.104 123.48 285.678 123.355 290.249 122.952C288.01 123.461 285.736 123.826 283.464 124.148C281.192 124.492 278.914 124.77 276.632 125.022C272.071 125.526 267.501 125.929 262.929 126.266C258.357 126.627 253.78 126.865 249.203 127.123C244.624 127.33 240.047 127.544 235.461 127.653L235.447 127.654C235.318 127.657 235.19 127.634 235.07 127.588C234.951 127.542 234.841 127.472 234.748 127.383C234.655 127.295 234.58 127.189 234.528 127.071C234.476 126.954 234.448 126.827 234.445 126.699C234.443 126.588 234.459 126.477 234.493 126.371C235.124 124.294 235.605 122.174 235.933 120.027C236.29 117.853 236.55 115.655 236.785 113.453C236.997 111.249 237.191 109.039 237.296 106.822C237.453 104.608 237.369 102.383 237.045 100.187Z" fill="#020202"/>
<path d="M292.61 127.126C288.7 127.789 271.358 127.432 262.386 127.198C262.386 127.198 281.575 111.132 281.635 105.104C281.635 105.104 288.323 122.317 290.249 122.952L292.61 127.126Z" fill="#020202"/>
<path d="M227.318 94.2051C227.117 95.9214 226.818 97.6088 226.485 99.2865C226.159 100.966 225.777 102.63 225.376 104.288C224.973 105.945 224.538 107.593 224.071 109.232C223.635 110.88 223.099 112.498 222.615 114.132L222.605 114.165C222.582 114.24 222.549 114.312 222.507 114.379C221.351 116.179 220.172 117.964 218.936 119.715C217.687 121.459 216.413 123.187 215.007 124.837C215.802 122.821 216.727 120.883 217.678 118.96C218.641 117.046 219.662 115.165 220.706 113.299L220.598 113.545C221.065 111.907 221.481 110.253 221.997 108.629C222.479 106.994 222.996 105.37 223.548 103.756C224.099 102.142 224.669 100.533 225.295 98.9405C225.914 97.3459 226.566 95.761 227.318 94.2051Z" fill="#020202"/>
<path d="M236.241 121.735C236.54 122.339 236.707 123 236.731 123.674C236.755 124.348 236.636 125.019 236.38 125.643C236.302 125.874 236.176 126.085 236.011 126.263C235.845 126.441 235.644 126.582 235.42 126.678C235.511 126.272 235.554 125.858 235.548 125.443C235.553 125.039 235.584 124.637 235.618 124.23C235.681 123.369 235.891 122.525 236.241 121.735Z" fill="#020202"/>
<path d="M258.18 127.126C260.679 126.132 263.058 124.856 265.269 123.323C267.446 121.82 269.495 120.137 271.393 118.294C272.332 117.36 273.279 116.434 274.133 115.413C275.07 114.465 275.844 113.379 276.719 112.362C277.169 111.861 277.532 111.298 277.942 110.764L279.169 109.151C279.961 108.054 280.708 106.92 281.575 105.832C281.145 107.137 280.642 108.424 280.098 109.697C279.457 110.913 278.881 112.186 278.12 113.345C276.653 115.719 274.906 117.909 272.918 119.868C270.899 121.816 268.618 123.472 266.14 124.789C263.69 126.143 260.972 126.94 258.18 127.126Z" fill="#020202"/>
<path d="M247.178 57.6209C248.229 51.4681 249.515 45.3826 250.824 39.312L252.795 30.2264C253.131 28.7176 253.475 27.2132 253.723 25.7128C253.837 24.9724 253.885 24.2748 253.978 23.4141C254.085 22.6214 254.235 21.8351 254.43 21.0591C255.199 18.0088 256.245 15.0348 257.554 12.1741C258.211 10.7421 258.966 9.35759 259.816 8.03075C260.656 6.67579 261.64 5.4152 262.75 4.27074C265.009 1.82503 268.091 0.298008 271.406 -0.0183268C272.238 -0.081593 273.073 -0.0774513 273.905 -0.00595195C274.726 0.0881688 275.54 0.240685 276.34 0.450438C277.921 0.869123 279.452 1.45447 280.909 2.19665L280.155 2.09665C281.873 1.74612 283.641 1.71849 285.37 2.01517C287.133 2.30598 288.798 3.02624 290.218 4.11243C290.924 4.66389 291.564 5.29463 292.126 5.99226C292.379 6.3545 292.606 6.73437 292.843 7.106C293.095 7.4645 293.304 7.85147 293.465 8.25889C293.837 9.03534 294.126 9.84947 294.324 10.6873C294.552 11.5003 294.709 12.331 294.796 13.1706C294.857 14.0013 294.996 14.8311 294.987 15.6575L294.917 18.1289C294.837 19.7472 294.665 21.2847 294.63 22.8758C294.573 24.4508 294.6 26.0277 294.708 27.6C294.699 29.1577 295.129 30.6865 295.949 32.011L295.96 32.0248C295.976 32.0461 295.984 32.0726 295.982 32.0994C295.98 32.1261 295.968 32.1512 295.949 32.1698C295.93 32.1884 295.904 32.1992 295.877 32.2002C295.851 32.2011 295.824 32.1921 295.804 32.1749C295.2 31.5971 294.747 30.8794 294.486 30.0852C294.222 29.3119 294.009 28.5218 293.85 27.7202C293.552 26.1261 293.365 24.5135 293.288 22.8937C293.182 21.2915 293.184 19.6373 293.175 18.0657L293.087 15.7478C293.038 14.9798 292.883 14.2306 292.79 13.4739C292.679 12.7294 292.504 11.9959 292.265 11.282C292.061 10.5755 291.791 9.88939 291.461 9.23241C291.324 8.89877 291.144 8.5847 290.925 8.29842C290.723 8.00434 290.536 7.69883 290.329 7.41151C289.871 6.88091 289.357 6.40205 288.796 5.9835C287.672 5.11414 286.35 4.53846 284.948 4.30851C283.527 4.03229 282.069 4.00684 280.639 4.2333L280.571 4.24485C280.336 4.28517 280.095 4.24589 279.884 4.13325C277.347 2.64173 274.459 1.85076 271.515 1.84119C268.556 1.95738 265.733 3.11856 263.549 5.11854C261.275 7.17677 259.445 9.67584 258.167 12.4638C256.829 15.244 255.913 18.2079 255.448 21.258C255.331 22.0064 255.256 22.7607 255.222 23.5174C255.209 24.2074 255.224 25.0679 255.17 25.8735C255.037 27.4609 254.858 29.0249 254.6 30.5697C254.111 33.6661 253.398 36.7058 252.662 39.7348C251.169 45.789 249.459 51.7827 247.39 57.6763C247.381 57.7024 247.362 57.724 247.338 57.737C247.314 57.75 247.285 57.7533 247.259 57.7463C247.232 57.7393 247.209 57.7226 247.194 57.6993C247.179 57.6761 247.173 57.6481 247.178 57.6209L247.178 57.6209Z" fill="#020202"/>
<path d="M208.2 128.691C208.516 127.973 208.946 127.312 209.475 126.733C210.015 126.135 210.64 125.619 211.33 125.203C212.74 124.381 214.326 123.906 215.957 123.818L215.876 123.825C216.991 123.703 218.117 123.719 219.229 123.872C220.328 124.022 221.404 124.307 222.433 124.722C223.462 125.141 224.418 125.722 225.264 126.442C226.099 127.145 226.78 128.013 227.265 128.991C226.427 128.399 225.539 127.882 224.611 127.445C223.723 127.035 222.796 126.718 221.844 126.497C219.972 126.05 218.047 125.866 216.124 125.95L216.043 125.956C214.667 125.956 213.299 126.172 211.99 126.594C211.321 126.819 210.674 127.106 210.059 127.451C209.412 127.822 208.791 128.236 208.2 128.691Z" fill="#020202"/>
<path d="M227.318 136.422C220.759 152.18 210.597 145.964 210.597 145.964C210.597 145.964 215.159 143.215 215.942 130.03C215.942 130.03 217.923 127.131 220.48 130.03C222.617 132.308 224.901 134.444 227.318 136.422Z" fill="white"/>
<path d="M227.411 136.399C227.186 137.208 226.904 138.145 226.564 139.108C226.186 140.009 225.755 140.816 225.32 141.669C225.076 142.076 224.794 142.462 224.521 142.854C224.261 143.259 223.969 143.642 223.649 144L222.642 145.052C222.279 145.383 221.897 145.692 221.498 145.979C219.887 147.155 217.93 147.762 215.935 147.704C214.014 147.64 212.133 147.131 210.442 146.216C210.4 146.194 210.364 146.161 210.338 146.121C210.311 146.082 210.296 146.036 210.292 145.988C210.288 145.941 210.296 145.893 210.316 145.85C210.336 145.806 210.366 145.768 210.404 145.74L210.444 145.71C211.487 144.806 212.275 143.645 212.729 142.342C213.239 141.04 213.627 139.693 213.885 138.318C214.05 137.641 214.141 136.941 214.284 136.259C214.383 135.564 214.493 134.873 214.576 134.176C214.638 133.475 214.718 132.778 214.767 132.076C214.794 131.371 214.858 130.671 214.911 129.969L214.915 129.909C214.927 129.741 214.987 129.581 215.089 129.447C215.561 128.765 216.228 128.243 217.004 127.95C217.419 127.795 217.861 127.729 218.303 127.754C218.745 127.779 219.177 127.896 219.572 128.097C220.225 128.456 220.796 128.947 221.247 129.54C221.627 129.997 222.014 130.458 222.413 130.914C223.213 131.822 224.04 132.723 224.874 133.623L226.124 134.982C226.555 135.459 226.933 135.833 227.411 136.399ZM227.223 136.446C226.692 136.159 226.181 135.837 225.692 135.483C225.176 135.136 224.667 134.779 224.173 134.403C223.176 133.661 222.206 132.88 221.276 132.041C220.805 131.627 220.348 131.192 219.907 130.734C219.578 130.371 219.183 130.074 218.743 129.86C218.586 129.784 218.414 129.744 218.24 129.742C218.066 129.74 217.893 129.777 217.735 129.85C217.367 130.029 217.046 130.29 216.795 130.613L216.974 130.091C216.911 130.82 216.86 131.549 216.772 132.275C216.679 133 216.554 133.724 216.446 134.448C216.317 135.17 216.161 135.889 216.014 136.607C215.819 137.319 215.662 138.036 215.415 138.735C214.953 140.142 214.343 141.495 213.597 142.774C212.882 144.097 211.915 145.267 210.749 146.217L210.751 145.711C211.529 146.136 212.371 146.429 213.245 146.578C213.681 146.649 214.123 146.681 214.566 146.672C215.002 146.68 215.438 146.646 215.868 146.569C217.542 146.26 219.123 145.574 220.492 144.562C221.894 143.528 223.14 142.299 224.191 140.91C224.68 140.178 225.25 139.441 225.732 138.722L227.223 136.446Z" fill="#020202"/>
<path d="M221.606 113.839C222.149 113.51 222.746 113.281 223.369 113.162C223.979 113.031 224.601 112.966 225.224 112.967C226.483 112.95 227.726 113.25 228.838 113.839C228.23 113.947 227.615 114.011 226.998 114.029C226.4 114.057 225.809 114.061 225.219 114.063C224.011 114.068 222.804 113.993 221.606 113.839Z" fill="#020202"/>
<path d="M173.186 170.636C172.22 170.879 171.31 171.307 170.506 171.897C169.688 172.47 168.92 173.112 168.212 173.818C166.789 175.234 165.478 176.758 164.291 178.378C161.927 181.639 159.74 185.025 157.741 188.522C153.685 195.494 150.147 202.761 146.658 210.041C143.194 217.336 139.924 224.726 136.774 232.167C133.615 239.602 130.474 247.057 127.532 254.572L127.365 253.658C130.091 256.743 132.99 259.732 135.972 262.601C138.947 265.481 142.079 268.194 145.353 270.729C148.558 273.32 152.135 275.415 155.963 276.942C157.837 277.692 159.877 277.925 161.871 277.615C162.839 277.405 163.747 276.977 164.525 276.364C165.303 275.75 165.931 274.968 166.361 274.076L166.365 274.069C166.389 274.022 166.424 273.981 166.467 273.951C166.509 273.92 166.559 273.9 166.611 273.892C168.513 273.637 170.442 273.662 172.337 273.965C174.236 274.247 176.073 274.853 177.766 275.758C178.614 276.211 179.419 276.742 180.17 277.343C180.907 277.961 181.585 278.647 182.193 279.392C182.813 280.127 183.363 280.917 183.838 281.752C184.331 282.575 184.667 283.477 185.087 284.338L184.785 284.089C188.897 284.468 193.043 284.069 197.008 282.914C200.988 281.801 204.806 280.171 208.364 278.067L210.98 276.41C211.861 275.873 212.647 275.191 213.484 274.589C215.137 273.352 216.721 272.026 218.23 270.616C219.028 269.961 219.713 269.181 220.442 268.45L222.605 266.231C223.958 264.669 225.264 263.064 226.597 261.485L226.407 262.17L222.044 229.528L219.897 213.202L217.836 196.866C217.814 196.695 217.832 196.522 217.888 196.359C217.943 196.197 218.035 196.049 218.156 195.927C218.277 195.805 218.424 195.712 218.586 195.656C218.748 195.599 218.921 195.58 219.092 195.6L219.107 195.602C226.891 196.511 234.72 196.997 242.557 197.056C250.395 197.186 258.232 196.715 265.998 195.646C273.712 194.491 281.444 192.715 288.374 189.117C291.857 187.365 294.992 184.996 297.627 182.124C300.24 179.195 302.075 175.657 302.966 171.834C302.972 171.806 302.989 171.782 303.014 171.767C303.038 171.751 303.067 171.746 303.095 171.752C303.123 171.758 303.148 171.775 303.164 171.799C303.18 171.822 303.186 171.852 303.18 171.88C302.425 175.808 300.696 179.484 298.151 182.57C295.572 185.64 292.433 188.192 288.902 190.09C285.399 192.002 281.704 193.537 277.877 194.67C274.07 195.823 270.189 196.714 266.26 197.337C258.416 198.552 250.491 199.162 242.554 199.164C238.59 199.2 234.628 199.087 230.672 198.861C226.711 198.634 222.778 198.326 218.808 197.842L220.078 196.579L222.197 212.908L224.23 229.248L228.228 261.937L228.234 261.984C228.248 262.098 228.237 262.214 228.204 262.324C228.17 262.434 228.114 262.536 228.038 262.623C226.65 264.218 225.288 265.835 223.878 267.408L221.627 269.645C220.897 270.41 220.127 271.137 219.321 271.823C217.739 273.229 216.081 274.548 214.356 275.774C213.481 276.37 212.661 277.044 211.743 277.575L209.019 279.207C205.319 281.272 201.369 282.853 197.265 283.91C193.152 284.995 188.875 285.321 184.645 284.873C184.586 284.866 184.53 284.844 184.482 284.81C184.433 284.776 184.394 284.73 184.368 284.676L184.343 284.624C183.944 283.798 183.63 282.924 183.164 282.135C182.718 281.334 182.199 280.576 181.613 279.871C181.04 279.158 180.402 278.5 179.705 277.906C178.995 277.329 178.233 276.818 177.429 276.38C175.811 275.5 174.054 274.904 172.234 274.62C170.415 274.337 168.563 274.328 166.741 274.592L166.99 274.409L166.12 275.78C165.741 276.172 165.396 276.603 164.981 276.958C164.128 277.661 163.118 278.147 162.037 278.376C159.903 278.739 157.711 278.52 155.691 277.742C151.749 276.239 148.042 274.185 144.678 271.64C141.297 269.166 138.056 266.506 134.972 263.672C131.879 260.846 128.898 257.93 126.028 254.848C125.919 254.73 125.844 254.583 125.813 254.425C125.782 254.267 125.796 254.103 125.853 253.952L125.861 253.934C128.761 246.356 131.777 238.843 134.99 231.402C138.225 223.973 141.581 216.595 145.132 209.306C148.679 202.017 152.515 194.858 156.743 187.924C158.844 184.442 161.166 181.098 163.695 177.913C164.965 176.316 166.358 174.82 167.86 173.439C168.613 172.743 169.431 172.122 170.302 171.581C171.166 171.014 172.132 170.62 173.146 170.421C173.174 170.416 173.203 170.423 173.227 170.439C173.25 170.456 173.266 170.481 173.271 170.509C173.277 170.537 173.271 170.566 173.255 170.59C173.239 170.614 173.214 170.63 173.186 170.636L173.186 170.636Z" fill="#020202"/>
<path d="M326.815 63.1337C328.424 62.5969 330.11 62.3327 331.806 62.3519C333.539 62.345 335.258 62.6669 336.871 63.3005C338.506 63.9913 339.962 65.0438 341.131 66.3788C342.281 67.7219 343.182 69.2591 343.793 70.9183C344.942 74.1886 345.492 77.6394 345.415 81.1049C345.346 84.4937 345.067 87.8749 344.581 91.2293C343.707 97.8836 342.653 104.521 341.232 111.088C339.906 117.677 338.023 124.143 335.605 130.415C336.454 127.172 337.179 123.908 337.781 120.624C338.426 117.347 338.995 114.058 339.551 110.768C340.621 104.18 341.573 97.5745 342.406 90.951C342.907 87.6836 343.22 84.3902 343.344 81.0869C343.497 77.847 343.106 74.6042 342.188 71.4935C341.755 69.9669 341.023 68.5418 340.033 67.3016C339.043 66.0615 337.816 65.0313 336.424 64.2712C333.429 62.8606 330.056 62.4614 326.815 63.1337Z" fill="#020202"/>
<path d="M219.862 203.441C226.828 204.865 233.783 206.181 240.759 207.336L251.234 208.974C254.725 209.535 258.233 209.998 261.758 210.365C265.286 210.683 268.83 210.783 272.37 210.665C275.902 210.521 279.42 210.138 282.9 209.52C286.354 208.921 289.758 208.062 293.083 206.953C296.381 205.89 299.533 204.422 302.468 202.582L302.509 202.559L302.651 202.489C303.998 201.794 305.262 200.946 306.416 199.964C307.623 198.95 308.767 197.866 309.845 196.717C311.993 194.354 313.907 191.788 315.56 189.056C317.247 186.305 318.765 183.453 320.103 180.517L322 176.029C322.568 174.505 323.123 172.973 323.723 171.448L323.725 171.443C323.735 171.417 323.754 171.396 323.779 171.384C323.804 171.372 323.833 171.37 323.859 171.378C323.886 171.386 323.908 171.404 323.922 171.428C323.936 171.452 323.94 171.48 323.934 171.507C323.575 173.103 323.171 174.693 322.78 176.291C322.32 177.866 321.811 179.431 321.29 180.994C320.192 184.116 318.842 187.144 317.254 190.048C315.668 192.992 313.753 195.747 311.548 198.261C310.973 198.876 310.403 199.497 309.805 200.093C309.17 200.654 308.579 201.257 307.9 201.775C306.571 202.919 305.089 203.871 303.496 204.603L303.678 204.511C297.366 208.118 290.332 210.28 283.083 210.839C275.972 211.401 268.834 211.548 261.706 211.278C258.142 211.209 254.58 211.028 251.018 210.735C247.463 210.413 243.932 209.873 240.428 209.208C233.409 207.933 226.509 206.074 219.799 203.651C219.771 203.641 219.749 203.621 219.737 203.594C219.725 203.568 219.724 203.537 219.734 203.51C219.744 203.485 219.762 203.465 219.785 203.452C219.809 203.44 219.836 203.436 219.862 203.441Z" fill="#020202"/>
<path d="M225.223 127.126C230.881 126.672 236.539 126.435 242.198 126.273C247.856 126.098 253.514 126.052 259.173 126.03C264.831 126.049 270.489 126.096 276.148 126.27C281.806 126.431 287.464 126.669 293.123 127.126C287.464 127.582 281.806 127.821 276.148 127.982C270.489 128.156 264.831 128.203 259.173 128.222C253.514 128.2 247.856 128.153 242.198 127.978C236.539 127.817 230.881 127.58 225.223 127.126Z" fill="#020202"/>
<path d="M316.938 130.413L314.093 130.365C311.865 132.291 309.104 133.496 306.176 133.82C304.259 133.984 302.328 133.735 300.515 133.089C298.701 132.443 297.048 131.415 295.666 130.075L227.264 128.991C228.84 130.97 229.785 133.378 229.974 135.9C229.974 135.9 228.842 140.333 220.064 129.523C220.064 129.523 216.57 128.139 215.835 130.249C215.109 132.368 215.757 149.101 205.025 146.914C205.025 146.914 203.225 134.991 208.199 128.691L199.341 128.55V129.878C199.341 130.679 199.184 131.471 198.878 132.211C198.571 132.95 198.122 133.622 197.556 134.188C196.991 134.754 196.319 135.203 195.579 135.509C194.84 135.815 194.047 135.973 193.247 135.973H150.893L151.265 142.462C151.265 142.036 151.285 141.794 151.285 141.794H168.627L154.972 155.527H133.72C131.849 155.526 130.053 154.788 128.722 153.473C127.391 152.158 126.631 150.372 126.606 148.501L126.451 135.973H84.5237C83.7234 135.973 82.9309 135.815 82.1915 135.509C81.4521 135.203 80.7802 134.754 80.2143 134.188C79.6484 133.622 79.1995 132.95 78.8932 132.211C78.5869 131.471 78.4293 130.679 78.4293 129.879V126.678H61.8335L-0.0844727 163.569C29.7133 163.308 59.5109 163.166 89.3085 163.143C119.116 163.037 148.914 163.143 178.711 163.182C208.509 163.192 238.307 163.395 268.114 163.55L312.806 163.83L357.343 164.247L371.627 155.817L386.085 147.34L415.031 130.413L316.938 130.413ZM283.85 151.22L214.887 150.727L218.961 146.449L227.032 137.081H294.737L283.85 151.22Z" fill="black"/>
<path d="M150.898 135.823C155.17 135.675 159.442 135.574 163.714 135.475C167.986 135.374 172.258 135.257 176.53 135.207L189.345 135.01L192.549 134.961C192.809 134.955 193.1 134.958 193.333 134.944C193.556 134.936 193.777 134.913 193.997 134.874C194.433 134.803 194.859 134.675 195.262 134.492C196.062 134.125 196.752 133.556 197.265 132.841C197.779 132.126 198.097 131.29 198.19 130.415L198.059 104.904C198.018 96.3603 198.044 87.8164 198.136 79.2725L198.536 53.6408L198.748 40.825C198.801 40.092 198.708 39.3557 198.474 38.659C198.24 37.9622 197.87 37.3187 197.386 36.7658C196.902 36.213 196.313 35.7617 195.653 35.4381C194.993 35.1146 194.276 34.9252 193.542 34.881C192.526 34.8385 191.42 34.8502 190.364 34.8423C173.276 34.7572 156.188 34.9173 139.101 35.1664C122.013 35.4453 104.925 35.6356 87.8374 35.7371L84.6335 35.7555C83.7976 35.7492 82.9743 35.9604 82.2446 36.3683C81.5295 36.7756 80.934 37.3636 80.5179 38.0735C80.1017 38.7835 79.8794 39.5903 79.8733 40.4132L79.9441 53.215L79.9795 78.8466L79.8301 104.478L79.5769 130.068C79.6017 130.947 79.8567 131.804 80.3164 132.553C80.7762 133.303 81.4245 133.918 82.1968 134.339C82.9958 134.77 83.893 134.985 84.8005 134.965L88.0044 135.019L100.82 135.234C109.364 135.386 117.908 135.582 126.452 135.823C126.49 135.824 126.526 135.84 126.552 135.867C126.578 135.894 126.593 135.93 126.593 135.968C126.593 136.006 126.578 136.042 126.552 136.07C126.526 136.097 126.49 136.112 126.452 136.113C117.908 136.355 109.364 136.551 100.82 136.703L88.0044 136.918L84.8005 136.972C83.562 137.025 82.33 136.765 81.2195 136.214C80.0882 135.641 79.1297 134.778 78.4423 133.713C77.755 132.647 77.3636 131.418 77.3083 130.152L77.0322 104.478L76.8828 78.8466L76.9182 53.2149L76.9951 40.3852C77.0181 39.0614 77.389 37.767 78.0706 36.632C78.7522 35.497 79.7205 34.5613 80.8782 33.919C82.0293 33.2915 83.3226 32.9708 84.6335 32.9877L87.8374 33.0061C104.925 33.0909 122.013 33.2811 139.101 33.5768C156.188 33.826 173.276 33.986 190.364 33.9009C191.443 33.9075 192.475 33.8724 193.593 33.8945C194.756 33.9408 195.886 34.2963 196.866 34.9243C197.85 35.5553 198.65 36.4343 199.187 37.473C199.455 37.9927 199.655 38.5446 199.782 39.1153C199.889 39.6789 199.942 40.2513 199.941 40.8249L200.153 53.6407L200.553 79.2724C200.639 87.8163 200.665 96.3602 200.63 104.904L200.578 117.72L200.526 124.128L200.498 127.332L200.484 128.934L200.477 129.735C200.475 129.997 200.451 130.352 200.427 130.654C200.281 131.913 199.804 133.11 199.045 134.124C198.286 135.139 197.271 135.934 196.105 136.43C195.527 136.671 194.919 136.835 194.298 136.916C193.99 136.959 193.679 136.982 193.367 136.983C193.067 136.989 192.824 136.978 192.549 136.976L189.345 136.927L176.53 136.73C172.258 136.68 167.986 136.563 163.714 136.462C159.442 136.363 155.17 136.261 150.898 136.114C150.86 136.112 150.825 136.096 150.798 136.069C150.772 136.042 150.758 136.006 150.758 135.968C150.758 135.931 150.772 135.895 150.798 135.867C150.825 135.84 150.86 135.825 150.898 135.823V135.823Z" fill="#020202"/>
<path d="M149.36 83.1593C149.389 86.3123 148.327 89.3785 146.354 91.8379C145.293 93.0917 143.96 94.0866 142.456 94.7467C140.952 95.4068 139.317 95.7147 137.675 95.6469C134.446 95.4359 131.423 93.9841 129.239 91.5954C127.04 89.3105 125.716 86.3236 125.5 83.1594C125.389 81.528 125.621 79.8913 126.183 78.3556C126.745 76.8199 127.623 75.4195 128.761 74.2454C129.912 73.0445 131.287 72.0813 132.809 71.4105C134.34 70.7403 135.996 70.401 137.668 70.4148C139.339 70.4287 140.989 70.7953 142.509 71.4908C144.005 72.1762 145.326 73.1931 146.371 74.4644C148.349 76.9263 149.406 80.0013 149.36 83.1593ZM149.141 83.1593C149.129 81.6594 148.77 80.1827 148.092 78.8446C147.421 77.5469 146.487 76.4028 145.35 75.485C143.183 73.7175 140.472 72.7528 137.675 72.7542C134.908 72.7651 132.246 73.8183 130.22 75.7041C128.172 77.6728 126.919 80.3264 126.701 83.1593C126.605 84.6163 126.818 86.0771 127.327 87.4459C127.851 88.8259 128.676 90.0717 129.742 91.0924C130.811 92.0604 132.065 92.8014 133.429 93.2705C134.793 93.7395 136.237 93.9269 137.675 93.8212C140.491 93.6795 143.187 92.638 145.366 90.8498C146.504 89.9291 147.438 88.7818 148.109 87.4808C148.785 86.1406 149.139 84.6606 149.141 83.1593Z" fill="#020202"/>
<path d="M190.567 127.123C187.216 127.509 183.865 127.704 180.515 127.832C177.166 127.972 173.816 127.998 170.467 128.003C167.117 127.972 163.768 127.916 160.42 127.747C157.071 127.591 153.723 127.366 150.375 126.949C153.726 126.56 157.076 126.364 160.426 126.237C163.776 126.098 167.126 126.071 170.475 126.069C173.824 126.102 177.173 126.158 180.522 126.327C183.871 126.484 187.219 126.708 190.567 127.123Z" fill="#020202"/>
<path d="M126.335 126.842C123.073 127.229 119.812 127.425 116.551 127.553C113.289 127.694 110.029 127.722 106.768 127.727C103.508 127.696 100.247 127.642 96.9871 127.474C93.7271 127.318 90.4675 127.094 87.2085 126.678C90.4709 126.288 93.7324 126.092 96.9934 125.964C100.255 125.823 103.515 125.796 106.776 125.793C110.037 125.826 113.297 125.881 116.557 126.049C119.817 126.205 123.077 126.428 126.335 126.842Z" fill="#020202"/>
<path d="M166.676 274.242C167.915 268.685 169.412 263.201 171.013 257.749C172.604 252.294 174.355 246.888 176.191 241.509C178.071 236.145 180.021 230.801 182.246 225.556C183.347 222.93 184.519 220.33 185.798 217.776C186.461 216.51 187.119 215.242 187.875 214.023C188.56 212.758 189.472 211.63 190.566 210.697C190.079 211.208 189.669 211.787 189.349 212.416C189.008 213.032 188.697 213.663 188.412 214.31C187.827 215.592 187.293 216.901 186.781 218.217C185.745 220.846 184.799 223.514 183.841 226.176L181.039 234.193L178.263 242.225C176.391 247.574 174.556 252.938 172.634 258.277C170.729 263.621 168.782 268.953 166.676 274.242Z" fill="#020202"/>
<path d="M184.715 284.481C184.067 279.76 183.634 275.03 183.277 270.297C182.907 265.565 182.665 260.828 182.448 256.089C182.272 251.349 182.123 246.607 182.102 241.861C182.068 237.114 182.11 232.365 182.371 227.607C183.023 232.327 183.457 237.057 183.812 241.79C184.182 246.522 184.424 251.26 184.638 255.999C184.812 260.739 184.961 265.481 184.981 270.227C185.015 274.973 184.973 279.723 184.715 284.481Z" fill="#020202"/>
<path d="M277.035 26.8966C277.461 26.8821 277.865 26.7024 278.162 26.3955C278.459 26.0885 278.624 25.6784 278.624 25.2516C278.624 24.8248 278.459 24.4147 278.162 24.1078C277.865 23.8008 277.461 23.6211 277.035 23.6066C276.608 23.6211 276.204 23.8008 275.907 24.1078C275.611 24.4147 275.445 24.8248 275.445 25.2516C275.445 25.6784 275.611 26.0885 275.907 26.3955C276.204 26.7024 276.608 26.8821 277.035 26.8966Z" fill="#020202"/>
<path d="M286.806 26.8966C287.233 26.8821 287.637 26.7024 287.934 26.3955C288.23 26.0885 288.396 25.6784 288.396 25.2516C288.396 24.8248 288.23 24.4147 287.934 24.1078C287.637 23.8008 287.233 23.6211 286.806 23.6066C286.38 23.6211 285.975 23.8008 285.679 24.1078C285.382 24.4147 285.216 24.8248 285.216 25.2516C285.216 25.6784 285.382 26.0885 285.679 26.3955C285.975 26.7024 286.38 26.8821 286.806 26.8966Z" fill="#020202"/>
<path d="M289.668 21.501C289.163 21.5822 288.653 21.6365 288.142 21.6635C287.678 21.7021 287.246 21.7027 286.811 21.7124C286.377 21.7183 285.944 21.7033 285.481 21.6788C284.965 21.6617 284.45 21.6023 283.944 21.501C284.25 21.0249 284.691 20.6501 285.21 20.424C285.71 20.1915 286.254 20.07 286.806 20.0679C287.357 20.0658 287.902 20.1831 288.404 20.4118C288.931 20.6302 289.374 21.0119 289.668 21.501Z" fill="#020202"/>
<path d="M278.318 21.501C277.891 21.6287 277.453 21.7185 277.01 21.7694C276.641 21.8189 276.269 21.8437 275.897 21.8437C275.527 21.8431 275.158 21.8186 274.792 21.7704C274.347 21.7229 273.909 21.6327 273.481 21.501C273.718 21.065 274.091 20.7177 274.542 20.5113C274.963 20.2981 275.43 20.191 275.902 20.1992C276.372 20.1958 276.836 20.3038 277.255 20.5144C277.708 20.7175 278.082 21.0642 278.318 21.501Z" fill="#020202"/>
<path d="M283.994 34.7589C283.891 34.9999 283.74 35.2172 283.55 35.3971C283.36 35.5771 283.134 35.7158 282.888 35.8046C282.391 35.9982 281.849 36.0481 281.325 35.9487C280.823 35.8504 280.349 35.6447 279.934 35.3456C279.53 35.0529 279.197 34.6712 278.963 34.23C279.422 34.3174 279.875 34.4347 280.319 34.5811C280.742 34.6774 281.13 34.8209 281.522 34.8705C282.342 35.0438 283.193 35.0054 283.994 34.7589Z" fill="#020202"/>
<path d="M254.812 210.268V289.936C254.812 289.936 271.393 296.501 281.575 289.936V210.268" fill="#020202"/>
<path d="M306.091 290.34C306.052 290.747 305.93 291.143 305.733 291.502C305.535 291.861 305.267 292.176 304.943 292.428C304.317 292.955 303.629 293.404 302.893 293.763C301.423 294.483 299.891 295.067 298.315 295.507C295.169 296.407 291.966 297.095 288.728 297.566C282.249 298.543 275.712 299.083 269.161 299.183C262.593 299.332 256.022 299.022 249.497 298.255C246.21 297.857 242.955 297.226 239.758 296.365C238.123 295.921 236.534 295.328 235.008 294.593C234.198 294.203 233.44 293.715 232.75 293.138C232.293 292.829 231.918 292.412 231.659 291.924C231.4 291.436 231.264 290.892 231.264 290.339C231.264 289.787 231.399 289.243 231.658 288.755C231.917 288.267 232.292 287.849 232.749 287.54C233.439 286.963 234.197 286.474 235.007 286.085C236.533 285.35 238.123 284.756 239.757 284.312C242.954 283.449 246.209 282.816 249.496 282.42C256.021 281.651 262.592 281.341 269.161 281.492C275.712 281.592 282.249 282.133 288.728 283.112C291.966 283.583 295.169 284.271 298.315 285.172C299.891 285.612 301.423 286.196 302.893 286.916C303.629 287.275 304.317 287.724 304.944 288.252C305.267 288.503 305.536 288.818 305.733 289.177C305.93 289.536 306.052 289.932 306.091 290.34ZM306.091 290.34C306.049 289.933 305.925 289.539 305.726 289.183C305.526 288.826 305.256 288.514 304.931 288.265C304.303 287.744 303.613 287.302 302.876 286.949C301.404 286.241 299.871 285.67 298.294 285.243C295.141 284.394 291.932 283.772 288.69 283.381C282.21 282.621 275.684 282.314 269.161 282.464C262.656 282.565 256.164 283.102 249.731 284.073C246.538 284.538 243.38 285.216 240.278 286.102C238.76 286.525 237.284 287.087 235.868 287.78C235.206 288.102 234.585 288.504 234.021 288.977C233.772 289.108 233.565 289.304 233.42 289.544C233.275 289.784 233.198 290.059 233.198 290.34C233.198 290.62 233.274 290.896 233.419 291.136C233.564 291.376 233.771 291.572 234.019 291.703C234.584 292.176 235.205 292.579 235.867 292.901C237.283 293.594 238.759 294.156 240.277 294.579C243.379 295.468 246.537 296.146 249.73 296.61C256.163 297.584 262.655 298.121 269.161 298.22C275.684 298.369 282.21 298.062 288.69 297.3C291.932 296.909 295.142 296.286 298.295 295.437C299.871 295.009 301.404 294.438 302.876 293.731C303.613 293.378 304.303 292.936 304.931 292.414C305.256 292.165 305.526 291.853 305.726 291.497C305.925 291.14 306.05 290.746 306.091 290.34Z" fill="#020202"/>
<path d="M316.358 50.456L303.07 47.6979V53.7851C303.073 61.6415 301.761 69.443 299.189 76.8665L296.114 85.7343L306.413 104.551C306.413 104.551 327.893 106.2 329.839 106.035C329.839 106.035 333.739 52.8948 316.358 50.456ZM304.125 92.8928C303.989 91.3638 303.883 89.8346 303.873 88.2959C303.83 86.7568 303.937 85.2172 304.193 83.6989C304.289 85.228 304.483 86.7377 304.628 88.2572L305.093 92.796C305.364 95.8348 305.635 98.8736 305.673 101.951C304.917 98.9776 304.4 95.9486 304.125 92.8928ZM308.915 101.806C308.539 101.793 308.182 101.635 307.92 101.364C307.657 101.093 307.511 100.731 307.511 100.354C307.511 99.9774 307.657 99.6153 307.92 99.3444C308.182 99.0735 308.539 98.9151 308.915 98.9026C309.292 98.915 309.649 99.0733 309.912 99.3442C310.174 99.6151 310.32 99.9773 310.32 100.354C310.32 100.731 310.174 101.094 309.912 101.364C309.649 101.635 309.292 101.794 308.915 101.806V101.806ZM314.945 102.609C314.569 102.596 314.212 102.437 313.951 102.166C313.69 101.896 313.544 101.534 313.544 101.158C313.544 100.781 313.69 100.42 313.951 100.149C314.212 99.8781 314.569 99.7193 314.945 99.7059C315.321 99.7192 315.677 99.878 315.938 100.149C316.2 100.42 316.346 100.781 316.346 101.158C316.346 101.534 316.2 101.896 315.938 102.166C315.677 102.437 315.321 102.596 314.945 102.609V102.609ZM320.596 102.919C320.22 102.906 319.863 102.748 319.601 102.477C319.338 102.206 319.192 101.844 319.192 101.467C319.192 101.09 319.338 100.728 319.601 100.457C319.863 100.186 320.22 100.028 320.596 100.016C320.973 100.028 321.33 100.186 321.592 100.457C321.854 100.728 322.001 101.09 322.001 101.467C322.001 101.844 321.854 102.206 321.592 102.477C321.33 102.748 320.973 102.907 320.596 102.919V102.919ZM326.267 103.403C325.891 103.39 325.534 103.232 325.272 102.961C325.01 102.69 324.863 102.328 324.863 101.951C324.863 101.574 325.01 101.212 325.272 100.941C325.534 100.67 325.891 100.512 326.267 100.499C326.644 100.512 327.001 100.67 327.263 100.941C327.526 101.212 327.672 101.574 327.672 101.951C327.672 102.328 327.526 102.69 327.263 102.961C327.001 103.232 326.644 103.39 326.267 103.403Z" fill="#020202"/>
<path d="M294.382 44.354C295.894 44.7345 297.375 45.2273 298.814 45.8282C300.245 46.4113 301.64 46.9986 303.073 47.7023C301.484 47.6876 299.914 47.3557 298.454 46.726C296.981 46.1544 295.606 45.3539 294.382 44.354Z" fill="#020202"/>
<path d="M267.051 69.75C268.161 67.7679 269.428 65.8782 270.84 64.099C272.218 62.293 273.741 60.6019 275.393 59.0424C274.285 61.0256 273.018 62.9155 271.603 64.6934C270.224 66.4981 268.701 68.1891 267.051 69.75Z" fill="#020202"/>
<path d="M131.214 254.643C131.591 254.63 131.947 254.471 132.209 254.2C132.471 253.929 132.617 253.568 132.617 253.191C132.617 252.814 132.471 252.453 132.209 252.182C131.947 251.911 131.591 251.752 131.214 251.739C130.838 251.752 130.482 251.911 130.22 252.182C129.958 252.453 129.812 252.814 129.812 253.191C129.812 253.568 129.958 253.929 130.22 254.2C130.482 254.471 130.838 254.63 131.214 254.643Z" fill="#020202"/>
<path d="M135.918 259.694C136.294 259.681 136.65 259.523 136.912 259.252C137.174 258.981 137.32 258.619 137.32 258.243C137.32 257.866 137.174 257.504 136.912 257.234C136.65 256.963 136.294 256.804 135.918 256.791C135.541 256.804 135.185 256.963 134.923 257.234C134.661 257.504 134.515 257.866 134.515 258.243C134.515 258.619 134.661 258.981 134.923 259.252C135.185 259.523 135.541 259.681 135.918 259.694Z" fill="#020202"/>
<path d="M141.318 264.746C141.694 264.733 142.051 264.575 142.312 264.304C142.574 264.033 142.72 263.671 142.72 263.295C142.72 262.918 142.574 262.556 142.312 262.285C142.051 262.015 141.694 261.856 141.318 261.843C140.942 261.856 140.585 262.015 140.323 262.285C140.062 262.556 139.916 262.918 139.916 263.295C139.916 263.671 140.062 264.033 140.323 264.304C140.585 264.575 140.942 264.733 141.318 264.746Z" fill="#020202"/>
<path d="M147.241 269.624C147.617 269.611 147.973 269.452 148.235 269.181C148.497 268.91 148.643 268.549 148.643 268.172C148.643 267.796 148.497 267.434 148.235 267.163C147.973 266.892 147.617 266.733 147.241 266.72C146.864 266.733 146.508 266.892 146.246 267.163C145.985 267.434 145.838 267.796 145.838 268.172C145.838 268.549 145.985 268.91 146.246 269.181C146.508 269.452 146.864 269.611 147.241 269.624Z" fill="#020202"/>
<path d="M154.034 273.979C154.411 273.966 154.767 273.807 155.029 273.536C155.29 273.265 155.437 272.904 155.437 272.527C155.437 272.151 155.29 271.789 155.029 271.518C154.767 271.247 154.411 271.088 154.034 271.075C153.658 271.088 153.301 271.247 153.04 271.518C152.778 271.789 152.632 272.151 152.632 272.527C152.632 272.904 152.778 273.265 153.04 273.536C153.301 273.807 153.658 273.966 154.034 273.979Z" fill="#020202"/>
<path d="M161.525 275.198C161.901 275.185 162.258 275.027 162.52 274.756C162.781 274.485 162.927 274.123 162.927 273.747C162.927 273.37 162.781 273.008 162.52 272.737C162.258 272.467 161.901 272.308 161.525 272.295C161.149 272.308 160.792 272.467 160.53 272.737C160.269 273.008 160.123 273.37 160.123 273.747C160.123 274.123 160.269 274.485 160.53 274.756C160.792 275.027 161.149 275.185 161.525 275.198Z" fill="#020202"/>
<path d="M169.19 271.888C169.566 271.875 169.922 271.717 170.184 271.446C170.446 271.175 170.592 270.813 170.592 270.437C170.592 270.06 170.446 269.698 170.184 269.428C169.922 269.157 169.566 268.998 169.19 268.985C168.813 268.998 168.457 269.157 168.195 269.428C167.933 269.698 167.787 270.06 167.787 270.437C167.787 270.813 167.933 271.175 168.195 271.446C168.457 271.717 168.813 271.875 169.19 271.888Z" fill="#020202"/>
<path d="M175.809 273.456C176.185 273.443 176.542 273.285 176.804 273.014C177.065 272.743 177.212 272.381 177.212 272.005C177.212 271.628 177.065 271.266 176.804 270.995C176.542 270.724 176.185 270.566 175.809 270.553C175.433 270.566 175.076 270.724 174.815 270.995C174.553 271.266 174.407 271.628 174.407 272.005C174.407 272.381 174.553 272.743 174.815 273.014C175.076 273.285 175.433 273.443 175.809 273.456Z" fill="#020202"/>
<path d="M181.732 276.766C182.108 276.753 182.465 276.594 182.727 276.324C182.988 276.053 183.134 275.691 183.134 275.314C183.134 274.938 182.988 274.576 182.727 274.305C182.465 274.034 182.108 273.876 181.732 273.863C181.356 273.876 180.999 274.034 180.737 274.305C180.476 274.576 180.33 274.938 180.33 275.314C180.33 275.691 180.476 276.053 180.737 276.324C180.999 276.594 181.356 276.753 181.732 276.766Z" fill="#020202"/>
<path d="M187.306 282.863C187.683 282.85 188.039 282.691 188.301 282.42C188.562 282.15 188.709 281.788 188.709 281.411C188.709 281.035 188.562 280.673 188.301 280.402C188.039 280.131 187.683 279.973 187.306 279.96C186.93 279.973 186.573 280.131 186.312 280.402C186.05 280.673 185.904 281.035 185.904 281.411C185.904 281.788 186.05 282.15 186.312 282.42C186.573 282.691 186.93 282.85 187.306 282.863Z" fill="#020202"/>
<path d="M194.448 281.818C194.825 281.805 195.181 281.646 195.443 281.375C195.704 281.104 195.851 280.743 195.851 280.366C195.851 279.99 195.704 279.628 195.443 279.357C195.181 279.086 194.825 278.927 194.448 278.914C194.072 278.927 193.715 279.086 193.454 279.357C193.192 279.628 193.046 279.99 193.046 280.366C193.046 280.743 193.192 281.104 193.454 281.375C193.715 281.646 194.072 281.805 194.448 281.818Z" fill="#020202"/>
<path d="M201.591 279.902C201.967 279.889 202.324 279.73 202.585 279.459C202.847 279.188 202.993 278.827 202.993 278.45C202.993 278.073 202.847 277.712 202.585 277.441C202.324 277.17 201.967 277.011 201.591 276.998C201.215 277.011 200.858 277.17 200.596 277.441C200.335 277.712 200.188 278.073 200.188 278.45C200.188 278.827 200.335 279.188 200.596 279.459C200.858 279.73 201.215 279.889 201.591 279.902Z" fill="#020202"/>
<path d="M207.339 277.289C207.716 277.276 208.072 277.117 208.334 276.846C208.596 276.575 208.742 276.213 208.742 275.837C208.742 275.46 208.596 275.099 208.334 274.828C208.072 274.557 207.716 274.398 207.339 274.385C206.963 274.398 206.607 274.557 206.345 274.828C206.083 275.099 205.937 275.46 205.937 275.837C205.937 276.213 206.083 276.575 206.345 276.846C206.607 277.117 206.963 277.276 207.339 277.289Z" fill="#020202"/>
<path d="M213.61 272.934C213.987 272.921 214.343 272.762 214.605 272.491C214.866 272.22 215.013 271.858 215.013 271.482C215.013 271.105 214.866 270.744 214.605 270.473C214.343 270.202 213.987 270.043 213.61 270.03C213.234 270.043 212.877 270.202 212.616 270.473C212.354 270.744 212.208 271.105 212.208 271.482C212.208 271.858 212.354 272.22 212.616 272.491C212.877 272.762 213.234 272.921 213.61 272.934Z" fill="#020202"/>
<path d="M219.011 267.708C219.387 267.695 219.744 267.536 220.005 267.265C220.267 266.994 220.413 266.633 220.413 266.256C220.413 265.879 220.267 265.518 220.005 265.247C219.744 264.976 219.387 264.817 219.011 264.804C218.634 264.817 218.278 264.976 218.016 265.247C217.755 265.518 217.608 265.879 217.608 266.256C217.608 266.633 217.755 266.994 218.016 267.265C218.278 267.536 218.634 267.695 219.011 267.708Z" fill="#020202"/>
<path d="M223.366 262.482C223.742 262.469 224.099 262.31 224.36 262.039C224.622 261.768 224.768 261.407 224.768 261.03C224.768 260.653 224.622 260.292 224.36 260.021C224.099 259.75 223.742 259.591 223.366 259.578C222.989 259.591 222.633 259.75 222.371 260.021C222.11 260.292 221.963 260.653 221.963 261.03C221.963 261.407 222.11 261.768 222.371 262.039C222.633 262.31 222.989 262.469 223.366 262.482Z" fill="#020202"/>
<path d="M326.703 105.859C326.142 108.54 325.446 111.191 324.619 113.802C323.809 116.435 322.793 119 321.582 121.475C320.376 123.989 318.867 126.346 317.088 128.493C315.276 130.715 312.97 132.482 310.354 133.655C307.655 134.83 304.65 135.108 301.781 134.45C298.925 133.77 296.336 132.259 294.339 130.107L293.59 129.312L292.948 128.488C292.525 127.936 292.08 127.397 291.693 126.822L290.499 125.118L289.383 123.367C287.936 121.016 286.623 118.587 285.449 116.089C283.096 111.121 281.137 105.975 279.592 100.7C278.032 95.4469 276.808 90.0997 275.929 84.691C275.064 79.2805 274.56 73.8186 274.421 68.3414C274.334 65.5911 274.416 62.838 274.668 60.0978C274.824 58.7253 274.984 57.3496 275.275 55.9844C275.53 54.5687 275.956 53.1891 276.544 51.876L276.484 52.0066C276.819 51.0678 277.232 50.159 277.72 49.29C278.202 48.4214 278.759 47.5965 279.384 46.8248C280.017 46.0398 280.734 45.3256 281.522 44.695C282.328 44.0565 283.213 43.5241 284.155 43.111L283.922 43.2501C284.712 42.5515 285.444 41.7891 286.11 40.9705C286.764 40.18 287.314 39.3087 287.746 38.3781C287.941 37.9495 288.079 37.4973 288.157 37.0331C288.2 36.4482 288.274 35.8659 288.378 35.2887L288.552 34.7534C288.638 34.5551 288.742 34.3646 288.862 34.1844C289.02 33.9543 289.223 33.7591 289.459 33.6109C289.695 33.4626 289.959 33.3645 290.235 33.3227C290.756 33.2603 291.282 33.3842 291.72 33.6724C291.927 33.803 292.113 33.9646 292.272 34.1516C292.527 34.4368 292.674 34.802 292.689 35.1842L290.614 35.1262C290.642 34.7127 290.723 34.3045 290.855 33.9114C290.997 33.46 291.236 33.0449 291.555 32.6954C291.96 32.2709 292.512 32.0164 293.098 31.9834C293.583 31.9646 294.066 32.0558 294.51 32.2502L293.041 33.0347C293.1 32.7306 293.185 32.4322 293.295 32.1427C293.422 31.7922 293.61 31.4671 293.85 31.1826C294.041 30.9611 294.282 30.7894 294.553 30.6825C294.883 30.5533 295.246 30.5371 295.586 30.6363C296.017 30.774 296.4 31.0301 296.692 31.3754L295.274 31.1948C295.633 30.9561 296.031 30.7837 296.451 30.6857C296.73 30.6234 297.019 30.6152 297.301 30.6614C297.664 30.7212 298 30.8908 298.264 31.1474C298.64 31.5473 298.866 32.0645 298.905 32.6118C298.924 32.8082 298.932 33.0054 298.93 33.2027L298.912 33.6616C298.85 34.8657 298.725 36.0656 298.535 37.2562C298.246 39.767 297.366 42.1735 295.967 44.2784C295.522 44.8657 295.172 45.2105 294.777 45.6716L293.622 46.978L291.312 49.5907L286.663 54.791L286.93 53.8369C288.485 63.1716 291.129 72.292 294.807 81.0116C296.652 85.3647 298.773 89.6284 300.964 93.8526L304.278 100.182L307.69 106.529C307.701 106.549 307.704 106.574 307.697 106.596C307.691 106.619 307.677 106.638 307.657 106.65C307.637 106.662 307.613 106.666 307.59 106.661C307.567 106.656 307.547 106.643 307.534 106.623L307.47 106.529C306.205 104.638 304.925 102.53 303.693 100.516C302.456 98.475 301.216 96.4348 300.034 94.3608C297.662 90.2169 295.345 86.0338 293.295 81.6841C291.287 77.3162 289.563 72.8233 288.133 68.2333C287.416 65.9387 286.766 63.6245 286.182 61.2908C285.621 58.9527 285.12 56.6014 284.681 54.237C284.65 54.071 284.656 53.9001 284.7 53.7371C284.745 53.5742 284.825 53.4233 284.936 53.2959L284.948 53.2825L289.558 48.0296L291.878 45.4156L293.037 44.1087C293.401 43.6879 293.869 43.1999 294.118 42.8516C295.272 41.0446 296.014 39.006 296.292 36.8802C296.484 35.7744 296.617 34.6591 296.69 33.5392L296.713 33.1263C296.722 33.013 296.703 32.9409 296.706 32.8456C296.697 32.6923 296.625 32.5877 296.724 32.7177C296.78 32.7691 296.848 32.8049 296.921 32.8214C296.974 32.8214 296.944 32.8217 296.905 32.825C296.757 32.8631 296.616 32.9219 296.486 32.9999L296.452 33.0212C296.235 33.1583 295.976 33.2132 295.722 33.1762C295.468 33.1392 295.236 33.0126 295.067 32.8193C294.99 32.7307 294.858 32.6505 295.005 32.7206C295.114 32.7411 295.225 32.7329 295.329 32.6968C295.374 32.6794 295.416 32.6539 295.452 32.6215C295.385 32.7127 295.331 32.8133 295.292 32.9201C295.228 33.084 295.176 33.2526 295.138 33.4245C295.104 33.5762 295.039 33.719 294.946 33.8435C294.853 33.968 294.735 34.0713 294.599 34.1466C294.463 34.2219 294.313 34.2675 294.158 34.2803C294.003 34.2932 293.847 34.273 293.701 34.2211L293.668 34.2092C293.529 34.1443 293.378 34.1066 293.224 34.0982C293.141 34.1055 293.146 34.0937 293.071 34.1552C292.963 34.282 292.882 34.4297 292.833 34.5892C292.76 34.8009 292.711 35.0201 292.688 35.2428L290.612 35.1848C290.622 35.4887 290.708 35.4813 290.679 35.4758C290.657 35.4501 290.632 35.4279 290.604 35.4098C290.529 35.3575 290.467 35.3592 290.507 35.3577C290.55 35.3598 290.583 35.2975 290.522 35.3727C290.497 35.407 290.467 35.477 290.432 35.5335L290.344 35.7912C290.238 36.2125 290.244 36.6091 290.136 37.3557C290.022 37.9891 289.827 38.605 289.554 39.1879C289.03 40.2711 288.364 41.2794 287.573 42.1863C286.811 43.0777 285.976 43.9035 285.076 44.655C285.015 44.706 284.947 44.7483 284.874 44.7805L284.842 44.7943C284.041 45.1244 283.285 45.5547 282.592 46.075C281.887 46.6114 281.243 47.2227 280.67 47.8979C280.089 48.5861 279.561 49.3175 279.091 50.0859C278.623 50.8514 278.218 51.6541 277.881 52.486C277.864 52.5297 277.842 52.5762 277.821 52.617C277.265 53.7844 276.843 55.0112 276.563 56.2737C276.251 57.5798 276.005 58.9011 275.828 60.2324C275.492 62.9199 275.321 65.6256 275.317 68.3341C275.33 73.7756 275.754 79.2083 276.585 84.5859C277.469 89.9551 278.805 95.2401 280.578 100.385C282.319 105.524 284.456 110.521 286.969 115.33C288.216 117.73 289.564 120.067 291.013 122.341L292.116 124.03L293.278 125.673C293.655 126.229 294.084 126.741 294.493 127.27L295.112 128.059L295.768 128.751C297.487 130.65 299.731 131.995 302.216 132.614C304.705 133.21 307.319 133.012 309.689 132.048C312.09 131.011 314.232 129.458 315.965 127.499C317.749 125.504 319.282 123.297 320.53 120.929C321.8 118.539 322.922 116.073 323.89 113.546C324.864 111.01 325.699 108.417 326.49 105.805C326.495 105.791 326.501 105.778 326.51 105.767C326.519 105.756 326.531 105.747 326.543 105.74C326.556 105.733 326.57 105.729 326.584 105.727C326.598 105.725 326.613 105.727 326.627 105.731C326.653 105.739 326.675 105.757 326.689 105.78C326.704 105.804 326.708 105.832 326.703 105.859Z" fill="#020202"/>
<path d="M135.123 262.728C133.878 267.763 131.564 272.472 128.338 276.534C126.677 278.595 124.658 280.338 122.378 281.681C121.221 282.382 120.138 282.878 119.032 283.538L115.744 285.445C111.38 288.039 106.983 290.62 102.634 293.28C98.2648 295.909 93.9977 298.707 89.8251 301.634L89.9521 301.44C89.7408 302.87 89.9409 304.331 90.529 305.652C91.1367 306.934 92.1746 307.963 93.4624 308.559C93.7766 308.722 94.1041 308.857 94.4414 308.964L95.4755 309.242C96.1849 309.368 96.9007 309.454 97.6195 309.501C98.3502 309.483 99.0744 309.52 99.8031 309.46L101.989 309.228L101.75 309.301C106.091 307.012 110.469 304.8 114.883 302.667C119.299 300.523 123.724 298.408 128.32 296.582C129.465 296.122 130.64 295.701 131.831 295.299L132.762 295.033C133.088 294.925 133.423 294.849 133.764 294.804L134.325 294.73L134.602 294.697L134.802 294.689C135.074 294.691 135.345 294.674 135.614 294.638C137.921 294.304 140.134 293.5 142.116 292.276C144.148 291.061 145.958 289.509 147.468 287.685C148.964 285.816 150.115 283.695 150.867 281.422L150.879 281.388L150.888 281.365C151.331 280.517 151.757 279.651 152.157 278.779C152.577 277.921 152.919 277.026 153.179 276.107L153.18 276.099C153.186 276.075 153.201 276.054 153.221 276.04C153.242 276.027 153.267 276.021 153.291 276.026C153.316 276.03 153.337 276.044 153.352 276.063C153.367 276.083 153.373 276.108 153.37 276.133C153.216 277.099 152.96 278.047 152.607 278.96C152.28 279.877 151.93 280.779 151.555 281.68L151.577 281.624C150.362 286.59 147.278 290.895 142.968 293.644C141.902 294.344 140.772 294.944 139.593 295.433C138.398 295.949 137.144 296.315 135.86 296.521C135.523 296.578 135.184 296.612 134.843 296.623L134.584 296.636L134.408 296.671L134.061 296.733C133.795 296.773 133.534 296.839 133.281 296.931L132.45 297.185C131.329 297.587 130.204 298.011 129.085 298.485C126.846 299.41 124.604 300.375 122.381 301.38C120.151 302.373 117.919 303.366 115.7 304.393L102.411 310.617L102.353 310.644C102.296 310.67 102.234 310.686 102.171 310.689L99.857 310.814C99.0846 310.833 98.3021 310.751 97.5292 310.722C96.7512 310.627 95.9792 310.488 95.2171 310.305L94.0892 309.934C93.7164 309.794 93.3558 309.623 93.0111 309.423C91.5835 308.669 90.4635 307.441 89.8441 305.95C89.252 304.483 89.0802 302.88 89.348 301.321C89.3539 301.283 89.3675 301.246 89.3881 301.214C89.4087 301.181 89.4358 301.153 89.4676 301.132L89.475 301.127C93.7108 298.278 97.9113 295.378 102.077 292.428C106.27 289.514 110.454 286.574 114.861 283.958C117.019 282.616 119.382 281.432 121.572 280.24C123.724 279.037 125.655 277.477 127.283 275.625C128.95 273.75 130.415 271.705 131.655 269.524C132.935 267.335 134.033 265.044 134.937 262.675L134.939 262.669C134.948 262.646 134.965 262.627 134.988 262.616C135.01 262.605 135.035 262.604 135.059 262.611C135.082 262.619 135.102 262.635 135.114 262.657C135.126 262.679 135.129 262.704 135.123 262.728L135.123 262.728Z" fill="#020202"/>
<path d="M89.6497 301.38C89.6497 301.38 82.2519 312.932 97.8658 317.829C97.8658 317.829 107.057 320.265 121.848 305.441C121.848 305.441 128.603 298.991 130.42 299.228L128.213 305.216L136.152 307.951L145.786 303.506L150.589 283.393C149.143 286.602 146.924 289.402 144.132 291.543C141.34 293.685 138.061 295.102 134.587 295.667C122.338 297.911 112.784 305.371 102.08 309.959C102.08 309.959 88.2595 312.385 89.6497 301.38Z" fill="#020202"/>
<path d="M99.4849 294.744C99.4849 294.744 108.802 295.423 110.365 305.885L119.252 301.675C119.252 301.675 117.613 288.849 106.254 290.323C106.254 290.323 102.461 289.672 99.4849 294.744Z" fill="#020202"/>
<path d="M195.834 274.824C197.221 279.822 197.521 285.059 196.714 290.182C196.278 292.792 195.377 295.301 194.052 297.591C193.356 298.751 192.688 299.735 192.045 300.851L190.126 304.132C187.6 308.536 185.039 312.945 182.559 317.399C180.053 321.841 177.692 326.365 175.528 330.98L175.544 330.736C176.059 332.086 176.943 333.264 178.094 334.136C179.251 334.965 180.665 335.354 182.083 335.236C183.515 335.104 184.904 334.681 186.168 333.995C187.46 333.31 188.688 332.51 189.837 331.604L189.664 331.786C193.212 326.268 196.898 320.853 200.677 315.485C202.58 312.81 204.521 310.161 206.595 307.588C207.637 306.268 208.756 305.01 209.946 303.822C210.298 303.478 210.687 303.174 211.106 302.916C211.421 302.742 211.723 302.548 212.011 302.333C212.615 301.868 213.176 301.351 213.689 300.786C215.787 298.423 217.31 295.607 218.139 292.557C219.009 289.466 219.194 286.222 218.682 283.052C217.67 276.565 216.869 270.073 216.073 263.571C216.07 263.546 216.077 263.52 216.093 263.5C216.108 263.48 216.131 263.467 216.156 263.463C216.182 263.46 216.207 263.467 216.228 263.482C216.248 263.497 216.261 263.52 216.265 263.545C217.281 270.01 218.226 276.499 219.401 282.922C220.171 286.199 220.198 289.606 219.481 292.894C218.741 296.23 217.217 299.342 215.035 301.973C214.472 302.643 213.85 303.262 213.177 303.822C212.82 304.111 212.442 304.375 212.046 304.609C211.778 304.796 211.528 305.006 211.299 305.239C210.195 306.387 209.159 307.598 208.195 308.866C206.19 311.414 204.254 314.043 202.314 316.668C198.434 321.921 194.671 327.276 190.89 332.609L190.869 332.638C190.827 332.697 190.775 332.749 190.716 332.791C189.454 333.693 188.106 334.468 186.692 335.107C185.256 335.775 183.701 336.151 182.119 336.214C180.499 336.265 178.913 335.741 177.642 334.736C176.406 333.743 175.466 332.43 174.927 330.94C174.913 330.9 174.907 330.858 174.91 330.816C174.913 330.774 174.924 330.733 174.943 330.696C177.262 326.147 179.48 321.555 181.658 316.933C183.877 312.334 186.075 307.716 188.626 303.271C189.849 301.044 191.318 298.846 192.681 296.758C193.951 294.643 194.855 292.328 195.356 289.912C195.9 287.461 196.17 284.958 196.16 282.448C196.198 279.912 196.026 277.377 195.646 274.87L195.645 274.864C195.641 274.839 195.647 274.815 195.661 274.794C195.675 274.774 195.696 274.76 195.721 274.755C195.745 274.75 195.77 274.754 195.791 274.767C195.812 274.78 195.827 274.801 195.834 274.824L195.834 274.824Z" fill="#020202"/>
<path d="M175.235 330.838C175.235 330.838 174.472 344.534 190.476 341.123C190.476 341.123 199.678 338.726 205.271 318.546C205.271 318.546 207.983 309.608 209.681 308.922L210.703 315.221L218.961 313.7L225.165 305.093L219.461 285.218C219.779 288.723 219.224 292.251 217.845 295.489C216.466 298.727 214.307 301.573 211.56 303.772C201.996 311.748 197.343 322.941 190.277 332.198C190.277 332.198 179.434 341.105 175.235 330.838Z" fill="#020202"/>
<path d="M180.538 320.224C180.538 320.224 188.985 316.235 195.489 324.578L201.159 316.543C201.159 316.543 193.427 306.179 184.259 313.046C184.259 313.046 180.636 314.345 180.538 320.224Z" fill="#020202"/>
<path d="M153.922 153.957C153.948 153.986 153.972 154.016 153.993 154.048L153.999 154.055L154.008 154.065L155.158 155.372C155.188 155.405 155.207 155.446 155.214 155.491C155.222 155.535 155.216 155.58 155.199 155.621C155.182 155.663 155.153 155.698 155.117 155.724C155.08 155.75 155.037 155.765 154.993 155.768L154.972 155.769C149.514 156.092 144.056 156.289 138.598 156.393L134.505 156.464C133.767 156.497 133.028 156.459 132.297 156.35C131.146 156.155 130.052 155.709 129.092 155.043C128.133 154.378 127.331 153.509 126.745 152.499C125.978 151.164 125.609 149.637 125.684 148.099C125.764 142.64 125.968 137.179 126.02 131.72C126.044 126.261 125.928 120.804 125.672 115.349C125.616 114.635 125.629 113.918 125.711 113.207C125.805 112.47 126.007 111.752 126.31 111.074C126.917 109.689 127.911 108.509 129.172 107.675C130.451 106.829 131.946 106.368 133.479 106.345L137.572 106.269L141.666 106.216C144.021 106.189 146.295 107.076 148.009 108.692C149.723 110.308 150.743 112.526 150.854 114.879C151.493 125.776 151.89 136.687 152.045 147.612L152.045 147.649L152.044 147.673C152.013 148.202 152.042 148.733 152.132 149.256C152.221 149.802 152.349 150.341 152.517 150.869C152.871 151.938 153.339 152.966 153.911 153.936C153.919 153.948 153.924 153.962 153.926 153.976C153.928 153.991 153.928 154.005 153.924 154.019C153.921 154.033 153.915 154.046 153.906 154.058C153.898 154.07 153.887 154.08 153.875 154.087C153.851 154.101 153.824 154.106 153.797 154.101C153.771 154.096 153.747 154.081 153.73 154.06C153.378 153.602 153.049 153.127 152.746 152.635C152.446 152.136 152.178 151.618 151.944 151.084C151.71 150.544 151.516 149.987 151.363 149.418C151.198 148.828 151.105 148.219 151.087 147.606L151.086 147.667C149.983 136.797 149.128 125.912 148.52 115.013C148.466 113.835 148.127 112.689 147.533 111.671C146.929 110.656 146.075 109.814 145.052 109.224C144.021 108.631 142.855 108.31 141.666 108.293L137.572 108.24L133.479 108.164C132.255 108.121 131.044 108.424 129.985 109.039C128.926 109.654 128.062 110.556 127.493 111.64C127.198 112.19 126.988 112.782 126.871 113.396C126.76 114.036 126.712 114.686 126.728 115.336C126.6 120.796 126.617 126.254 126.778 131.71C126.965 137.166 127.305 142.621 127.52 148.076C127.505 149.282 127.819 150.47 128.429 151.51C129.039 152.525 129.918 153.351 130.969 153.895C131.492 154.168 132.053 154.362 132.633 154.47C133.252 154.571 133.878 154.611 134.505 154.59L138.598 154.661C144.056 154.765 149.514 154.962 154.972 155.285L154.786 155.682L153.807 154.202L153.822 154.219C153.784 154.16 153.749 154.099 153.719 154.039C153.707 154.016 153.704 153.99 153.71 153.965C153.716 153.941 153.731 153.919 153.752 153.905C153.773 153.89 153.799 153.884 153.824 153.887C153.849 153.89 153.873 153.902 153.89 153.921L153.922 153.957Z" fill="#020202"/>
<path d="M180.501 180.307C180.942 181.011 181.28 181.774 181.504 182.573C181.726 183.333 181.879 184.111 181.962 184.898C182.048 185.684 182.063 186.477 182.006 187.266C181.956 188.095 181.785 188.913 181.499 189.693C181.056 188.99 180.717 188.227 180.493 187.427C180.272 186.667 180.119 185.889 180.038 185.102C179.954 184.316 179.94 183.523 179.996 182.734C180.047 181.905 180.217 181.088 180.501 180.307Z" fill="white"/>
</g>
<defs>
<clipPath id="clip0_23_95">
<rect width="415" height="342" fill="white"/>
</clipPath>
</defs>
</svg>
